<?xml version="1.0" encoding="utf-8"?>
<!-- Generator: Adobe Illustrator 23.1.1, SVG Export Plug-In . SVG Version: 6.00 Build 0)  -->
<svg version="1.1" id="Capa_1" xmlns="http://www.w3.org/2000/svg" xmlns:xlink="http://www.w3.org/1999/xlink" x="0px" y="0px"
	 viewBox="0 0 399.2 87.1" style="enable-background:new 0 0 399.2 87.1;" xml:space="preserve">
<style type="text/css">
	.st0{fill:#021E73;}
	.st1{font-family:'Lora-Bold';}
	.st2{font-size:20px;}
	.st3{fill:#2962FF;stroke:#FFFFFF;stroke-width:2;stroke-miterlimit:10;}
	.st4{fill:#B2DAFA;stroke:#FFFFFF;stroke-width:2;stroke-miterlimit:10;}
	.st5{fill:#030A8C;stroke:#FFFFFF;stroke-width:2;stroke-miterlimit:10;}
</style>
<text transform="matrix(1 0 0 1 223.9452 25.1873)"><tspan x="0" y="0" class="st0 st1 st2">Centro</tspan><tspan x="0" y="24" class="st0 st1 st2">Intervención</tspan><tspan x="0" y="48" class="st0 st1 st2">Multigeneracional</tspan></text>
<g>
	<path class="st3" d="M109.3,43.5h-17c-3.1,0-5.7-2.5-5.7-5.7V23.7c0-3.1,2.5-5.7,5.7-5.7h17c3.1,0,5.7,2.5,5.7,5.7v14.2
		C115,41,112.5,43.5,109.3,43.5z"/>
	<path class="st4" d="M109.3,18h-17c-3.1,0-5.7-2.5-5.7-5.7V6.7c0-3.1,2.5-5.7,5.7-5.7h17c3.1,0,5.7,2.5,5.7,5.7v5.7
		C115,15.5,112.5,18,109.3,18z"/>
	<path class="st5" d="M109.3,86.1h-17c-3.1,0-5.7-2.5-5.7-5.7V49.2c0-3.1,2.5-5.7,5.7-5.7h17c3.1,0,5.7,2.5,5.7,5.7v31.2
		C115,83.5,112.5,86.1,109.3,86.1z"/>
	<g>
		<path class="st4" d="M48.5,38.6c0.1-0.1,0.1-0.1,0.2-0.2l10.9-10.9c1.9-1.9,4-4,6-6l4.9-4.9l0,0c0.7-0.8,1.2-1.8,1.2-2.9
			c0-1.3-0.6-2.5-1.6-3.3l0,0C62.8,4.5,53.6,1,43.5,1c-10.1,0-19.3,3.5-26.6,9.4c-0.9,0.8-1.6,1.9-1.6,3.3c0,1.1,0.4,2.1,1.1,2.8
			c0.5,0.5,1.1,1.1,1.6,1.6l2.9,2.9c2.4,2.4,5.1,5.1,8,8l5.6,5.6c0.7,0.7,1.5,1.5,2.3,2.3l1.8,1.8c1.3,1.2,3,2,4.9,2
			C45.5,40.6,47.2,39.8,48.5,38.6z"/>
	</g>
	<g>
		<path class="st3" d="M48.5,48.4c0.1,0.1,0.1,0.1,0.2,0.2l10.9,10.9c1.9,1.9,4,4,6,6l4.9,4.9l0,0c0.7,0.8,1.2,1.8,1.2,2.9
			c0,1.3-0.6,2.5-1.6,3.3l0,0C62.8,82.5,53.6,86,43.5,86c-10.1,0-19.3-3.5-26.6-9.4c-0.9-0.8-1.6-1.9-1.6-3.3c0-1.1,0.4-2.1,1.1-2.8
			c0.5-0.5,1.1-1.1,1.6-1.6l2.9-2.9c2.4-2.4,5.1-5.1,8-8l5.6-5.6c0.7-0.7,1.5-1.5,2.3-2.3l1.8-1.8c1.3-1.2,3-2,4.9-2
			C45.5,46.4,47.2,47.2,48.5,48.4z"/>
	</g>
	<g>
		<g>
			<path class="st5" d="M209,81.8c0-1.2-0.5-2.3-1.3-3.1h0l-2.3-2.3c-0.9-0.9-1.9-1.9-2.9-2.9c0,0,0.1-0.1,0.1-0.1
				c-1.4-1.4-3-3-4.6-4.6l-2.9-2.9c-2.4-2.4-5.1-5.1-8-8l-5.6-5.6c-0.7-0.7-1.5-1.5-2.3-2.3l-1.8-1.8c-1.3-1.2-3-2-4.9-2
				s-3.6,0.8-4.9,2c-0.1,0.1-0.1,0.1-0.2,0.2l-10.9,10.9c-1.9,1.9-4,4-6,6l-5.8,5.8c-0.7,0.7-1.5,1.5-2.2,2.2c0,0,0.1,0.1,0.1,0.1
				c-1,1-2,2-2.9,2.9l-2.3,2.3h0c-0.8,0.8-1.3,1.9-1.3,3.1c0,2.3,1.9,4.3,4.3,4.3h64.5C207.1,86.1,209,84.2,209,81.8z"/>
		</g>
	</g>
	<g>
		<path class="st4" d="M134.2,80c1.2,0,2.3-0.5,3.1-1.3v0l2.3-2.3c0.9-0.9,1.9-1.9,2.9-2.9c0,0,0.1,0.1,0.1,0.1c1.4-1.4,3-3,4.6-4.6
			l2.9-2.9c2.4-2.4,5.1-5.1,8-8l5.6-5.6c0.7-0.7,1.5-1.5,2.3-2.3l1.8-1.8c1.2-1.3,2-3,2-4.9s-0.8-3.6-2-4.9
			c-0.1-0.1-0.1-0.1-0.2-0.2l-10.9-10.9c-1.9-1.9-4-4-6-6l-5.8-5.8c-0.7-0.7-1.5-1.5-2.2-2.2c0,0-0.1,0.1-0.1,0.1c-1-1-2-2-2.9-2.9
			l-2.3-2.3v0c-0.8-0.8-1.9-1.3-3.1-1.3c-2.3,0-4.3,1.9-4.3,4.3v64.5C130,78.1,131.9,80,134.2,80z"/>
	</g>
	<g>
		<path class="st3" d="M210.7,80c-1.2,0-2.3-0.5-3.1-1.3v0l-2.3-2.3c-0.9-0.9-1.9-1.9-2.9-2.9c0,0-0.1,0.1-0.1,0.1
			c-1.4-1.4-3-3-4.6-4.6l-2.9-2.9c-2.4-2.4-5.1-5.1-8-8l-5.6-5.6c-0.7-0.7-1.5-1.5-2.3-2.3l-1.8-1.8c-1.2-1.3-2-3-2-4.9
			s0.8-3.6,2-4.9c0.1-0.1,0.1-0.1,0.2-0.2l10.9-10.9c1.9-1.9,4-4,6-6l5.8-5.8c0.7-0.7,1.5-1.5,2.2-2.2c0,0,0.1,0.1,0.1,0.1
			c1-1,2-2,2.9-2.9l2.3-2.3v0c0.8-0.8,1.9-1.3,3.1-1.3c2.3,0,4.3,1.9,4.3,4.3v64.5C215,78.1,213.1,80,210.7,80z"/>
	</g>
	<g>
		<path class="st5" d="M38.6,38.6c-0.1-0.1-0.1-0.1-0.2-0.2L27.5,27.5c-1.9-1.9-4-4-6-6l-4.9-4.9l0,0c-0.8-0.7-1.8-1.2-2.9-1.2
			c-1.3,0-2.5,0.6-3.3,1.6l0,0C4.5,24.2,1,33.5,1,43.5c0,10.1,3.5,19.3,9.4,26.6c0.8,0.9,1.9,1.6,3.3,1.6c1.1,0,2.1-0.4,2.8-1.1
			c0.5-0.5,1.1-1.1,1.6-1.6l2.9-2.9c2.4-2.4,5.1-5.1,8-8l5.6-5.6c0.7-0.7,1.5-1.5,2.3-2.3l1.8-1.8c1.2-1.3,2-3,2-4.9
			C40.6,41.6,39.8,39.9,38.6,38.6z"/>
	</g>
</g>
</svg>
