<?xml version="1.0" encoding="utf-8"?>
<!-- Generator: Adobe Illustrator 23.1.1, SVG Export Plug-In . SVG Version: 6.00 Build 0)  -->
<svg version="1.1" id="Capa_1" xmlns="http://www.w3.org/2000/svg" xmlns:xlink="http://www.w3.org/1999/xlink" x="0px" y="0px"
	 viewBox="0 0 444.8 570.8" style="enable-background:new 0 0 444.8 570.8;" xml:space="preserve">
<style type="text/css">
	.st0{fill:#1A1D7D;}
	.st1{fill:url(#SVGID_1_);}
</style>
<path class="st0" d="M155.7,73.7h-3.4c-18.1,0-33.5,11.7-39.1,27.9H51.4C23.1,101.6,0,124.7,0,153v366.3c0,28.4,23.1,51.4,51.4,51.4
	h341.9c28.4,0,51.4-23.1,51.4-51.4V153c0-28.4-23.1-51.4-51.4-51.4h-56.3c-5.5-15.9-20.6-27.6-38.3-27.9l-0.6,0c-0.1,0-0.1,0-0.2,0
	h-7.8c-2.6,0-4.2-1.1-5-2c-1.2-1.3-1.8-3-1.7-4.8c0-0.2,0-0.4,0-0.6v-4.5c0-16.8-6.6-32.5-18.5-44.2C253.2,5.9,237.5-0.3,220.8,0
	c-0.1,0-0.2,0-0.3,0c-31.9,1.4-58,27.3-59.3,59c0,0.2,0,0.3,0,0.5v7.3c0,0.2,0,0.4,0,0.6c0.1,1.6-0.5,3.3-1.7,4.5
	C158.9,72.6,157.6,73.7,155.7,73.7L155.7,73.7z M422.9,153v366.3c0,16.3-13.3,29.6-29.6,29.6l-341.9,0c-16.3,0-29.6-13.3-29.6-29.6
	V153c0-16.3,13.3-29.6,29.6-29.6H111V146c0,6,4.9,10.9,10.9,10.9h206.5c6,0,10.9-4.9,10.9-10.9v-22.5h54
	C409.7,123.5,422.9,136.7,422.9,153L422.9,153z M175.4,86.9c5.2-5.5,8-12.9,7.7-20.4v-6.7c1-20,18.1-36.9,38.3-37.9
	c10.7-0.2,20.8,3.8,28.4,11.3c7.7,7.5,11.9,17.7,11.9,28.6v4.2c-0.4,7.8,2.3,15.2,7.6,20.8c5.4,5.7,12.8,8.9,20.9,8.9h7.7l0.5,0
	c10.5,0.2,19.1,8.9,19.1,19.4v20.1H132.9V115c0-10.7,8.7-19.4,19.4-19.4h3.4C163.1,95.5,170.3,92.4,175.4,86.9L175.4,86.9z"/>
<linearGradient id="SVGID_1_" gradientUnits="userSpaceOnUse" x1="71.6294" y1="351.7473" x2="370.2982" y2="351.7473">
	<stop  offset="0" style="stop-color:#6EB4D4"/>
	<stop  offset="1" style="stop-color:#3E5A9F"/>
</linearGradient>
<path class="st1" d="M155.3,423.4h-35.8v-71.7H215v71.7h-35.8v83.6h83.6v-83.6h-35.8v-71.7h95.6v71.7h-35.8v83.6h83.6v-83.6h-35.8
	v-83.6H226.9v-59.7h35.8v-83.6h-83.6v83.6H215v59.7H107.5v83.6H71.6v83.6h83.6L155.3,423.4z M358.4,435.4v59.7h-59.7v-59.7H358.4z
	 M191.1,268.1v-59.7h59.7v59.7H191.1z M250.8,435.4v59.7h-59.7v-59.7H250.8z M143.3,495.1H83.6v-59.7h59.7V495.1z"/>
</svg>
