<?xml version="1.0" encoding="utf-8"?>
<!-- Generator: Adobe Illustrator 23.1.1, SVG Export Plug-In . SVG Version: 6.00 Build 0)  -->
<svg version="1.1" id="Capa_1" xmlns="http://www.w3.org/2000/svg" xmlns:xlink="http://www.w3.org/1999/xlink" x="0px" y="0px"
	 viewBox="0 0 445.2 577.7" style="enable-background:new 0 0 445.2 577.7;" xml:space="preserve">
<style type="text/css">
	.st0{fill:#FFFFFF;}
</style>
<g>
	<path class="st0" d="M156.9,417.2h-35.8v-71.7h95.6v71.7h-35.8v83.6h83.6v-83.6h-35.8v-71.7h95.6v71.7h-35.8v83.6h83.6v-83.6h-35.8
		v-83.6H228.6v-59.7h35.8v-83.6h-83.6v83.6h35.8v59.7H109.1v83.6H73.3v83.6h83.6V417.2z M360,429.2v59.7h-59.7v-59.7H360z
		 M192.7,261.9v-59.7h59.7v59.7H192.7z M252.5,429.2v59.7h-59.7v-59.7H252.5z M144.9,488.9H85.2v-59.7h59.7V488.9z"/>
</g>
<g>
	<path class="st0" d="M309.4,133.4H135.8c-12.3,0-22.4-9.6-22.4-21.3V89.4c0-0.9,0.1-1.8,0.2-2.7V71.2c0-14.3,12.3-25.9,27.3-25.9
		h23.2c5.1-26,29.6-45.3,58.5-45.3c14.2,0,27.9,4.7,38.7,13.3c8.5,6.7,14.7,15.5,18,25.3h2.2v6.8h22.7c15.1,0,27.3,11.6,27.3,25.9
		v15.4c0.1,0.9,0.2,1.8,0.2,2.7V112C331.8,123.8,321.8,133.4,309.4,133.4z M140.9,65.4c-4,0-7.3,2.7-7.3,5.9v17.1l-0.2,0.9
		c0,0.1,0,0.1,0,0.2v22.6c0,0.5,0.9,1.3,2.4,1.3h173.7c1.5,0,2.4-0.9,2.4-1.3V89.4c0,0,0,0,0-0.1l-0.2-0.9V71.2
		c0-3.2-3.4-5.9-7.3-5.9H279c-6.1,0-11.7-3.1-14.8-7.9l-1.4-0.2l-0.7-4.5l-0.2-0.6l-0.1-0.7c0-0.4-0.1-0.8-0.2-1.2V50
		c-2.9-17.1-19.7-30-39.1-30c-20.2,0-37.1,13.5-39.3,31.4l-0.1,0.7l-0.2,0.7c-2,7.3-8.9,12.5-16.8,12.5h-25.2V65.4z"/>
</g>
<g>
	<path class="st0" d="M392.7,75.8H333v10.8c0.1,0.9,0.2,1.8,0.2,2.7v6.4h59.6c17.9,0,32.5,14.6,32.5,32.5v396.9
		c0,17.9-14.6,32.5-32.5,32.5H52.5C34.6,557.6,20,543,20,525.1V128.3c0-17.9,14.6-32.5,32.5-32.5h62.2v-6.4c0-0.9,0.1-1.8,0.2-2.7
		V75.8H52.5C23.6,75.8,0,99.4,0,128.3v396.9c0,29,23.6,52.5,52.5,52.5h340.2c29,0,52.5-23.6,52.5-52.5V128.3
		C445.2,99.4,421.6,75.8,392.7,75.8z"/>
	<path class="st0" d="M313.1,112c0,0.5-0.9,1.3-2.4,1.3h-86.8h-86.8c-1.5,0-2.4-0.9-2.4-1.3V95.8h-20V112c0,11.8,10,21.3,22.4,21.3
		h86.8h86.8c12.3,0,22.4-9.6,22.4-21.3V95.8h-20V112z"/>
	<path class="st0" d="M134.9,71.2c0-3.2,3.4-5.9,7.3-5.9h25.3c7.9,0,14.8-5.1,16.8-12.5l0.2-0.7l0.1-0.7
		c2.2-17.9,19.1-31.4,39.3-31.4s37.1,13.5,39.3,31.4l0.1,0.7l0.2,0.7c2,7.3,8.9,12.5,16.8,12.5h25.3c4,0,7.3,2.7,7.3,5.9v4.6h20
		v-4.6c0-14.3-12.3-25.9-27.3-25.9h-23.2C277.3,19.3,252.8,0,223.9,0s-53.4,19.3-58.5,45.4h-23.2c-15.1,0-27.3,11.6-27.3,25.9v4.6
		h20V71.2z"/>
	<path class="st0" d="M312.9,88.4l0.2,0.9c0,0.1,0,0.1,0,0.2v6.4h20v-6.4c0-0.9-0.1-1.8-0.2-2.7v-11h-20V88.4z"/>
	<path class="st0" d="M114.7,89.4v6.4h20v-6.4c0-0.1,0-0.1,0-0.2l0.2-0.9V75.8h-20v10.8C114.8,87.6,114.7,88.5,114.7,89.4z"/>
</g>
</svg>
