<?xml version="1.0" encoding="utf-8"?>
<!-- Generator: Adobe Illustrator 23.1.1, SVG Export Plug-In . SVG Version: 6.00 Build 0)  -->
<svg version="1.1" id="Capa_1" xmlns="http://www.w3.org/2000/svg" xmlns:xlink="http://www.w3.org/1999/xlink" x="0px" y="0px"
	 viewBox="0 0 488.8 87.1" style="enable-background:new 0 0 488.8 87.1;" xml:space="preserve">
<style type="text/css">
	.st0{fill:#021E73;}
	.st1{fill:#1E88E5;stroke:#FFFFFF;stroke-width:2;stroke-miterlimit:10;}
	.st2{fill:#B2DAFA;stroke:#FFFFFF;stroke-width:2;stroke-miterlimit:10;}
	.st3{fill:#030A8C;stroke:#FFFFFF;stroke-width:2;stroke-miterlimit:10;}
</style>
<g>
	<path class="st0" d="M252.8,32.1c0.2,0,0.3,0.1,0.4,0.2l1.1,1.2c-0.8,0.9-1.7,1.6-2.8,2.1c-1.1,0.5-2.5,0.8-4,0.8
		c-1.4,0-2.6-0.2-3.7-0.7c-1.1-0.5-2.1-1.1-2.9-2c-0.8-0.9-1.4-1.9-1.8-3.1c-0.4-1.2-0.6-2.5-0.6-3.9c0-1.4,0.2-2.7,0.7-3.9
		c0.5-1.2,1.1-2.2,1.9-3.1c0.8-0.9,1.8-1.5,2.9-2c1.1-0.5,2.4-0.7,3.8-0.7c1.3,0,2.5,0.2,3.6,0.7c1,0.4,2,1,2.7,1.8l-0.9,1.3
		c-0.1,0.1-0.1,0.2-0.2,0.2c-0.1,0.1-0.2,0.1-0.4,0.1c-0.2,0-0.4-0.1-0.6-0.3c-0.2-0.2-0.5-0.4-0.9-0.6c-0.4-0.2-0.8-0.4-1.4-0.6
		c-0.5-0.2-1.2-0.3-2-0.3c-0.9,0-1.8,0.2-2.6,0.5c-0.8,0.3-1.5,0.8-2,1.4c-0.6,0.6-1,1.4-1.3,2.3c-0.3,0.9-0.5,1.9-0.5,3.1
		c0,1.2,0.2,2.2,0.5,3.1c0.3,0.9,0.8,1.7,1.3,2.3c0.6,0.6,1.2,1.1,2,1.4c0.8,0.3,1.6,0.5,2.5,0.5c0.5,0,1,0,1.5-0.1
		c0.4-0.1,0.8-0.2,1.2-0.3c0.4-0.1,0.7-0.3,1-0.5c0.3-0.2,0.6-0.5,1-0.7c0.1-0.1,0.1-0.1,0.2-0.2C252.7,32.2,252.7,32.1,252.8,32.1z
		"/>
	<path class="st0" d="M268.1,34.3c-0.3,0.4-0.7,0.7-1.1,1c-0.4,0.3-0.9,0.5-1.3,0.7c-0.5,0.2-0.9,0.3-1.4,0.4
		c-0.5,0.1-1,0.1-1.5,0.1c-0.9,0-1.8-0.2-2.6-0.5c-0.8-0.3-1.5-0.8-2-1.4c-0.6-0.6-1-1.3-1.3-2.2c-0.3-0.9-0.5-1.9-0.5-3.1
		c0-0.9,0.1-1.8,0.4-2.6c0.3-0.8,0.7-1.5,1.2-2.1c0.5-0.6,1.2-1.1,2-1.4c0.8-0.3,1.7-0.5,2.6-0.5c0.8,0,1.6,0.1,2.3,0.4
		c0.7,0.3,1.3,0.7,1.8,1.2c0.5,0.5,0.9,1.1,1.2,1.9c0.3,0.7,0.4,1.6,0.4,2.6c0,0.4,0,0.7-0.1,0.8c-0.1,0.1-0.3,0.2-0.5,0.2h-8.8
		c0,0.8,0.1,1.5,0.3,2.1c0.2,0.6,0.5,1.1,0.8,1.5c0.4,0.4,0.8,0.7,1.3,0.9c0.5,0.2,1,0.3,1.6,0.3c0.6,0,1.1-0.1,1.5-0.2
		c0.4-0.1,0.8-0.3,1.1-0.4c0.3-0.2,0.6-0.3,0.8-0.4c0.2-0.1,0.4-0.2,0.5-0.2c0.2,0,0.4,0.1,0.5,0.2L268.1,34.3z M265.9,28
		c0-0.5-0.1-1-0.2-1.4c-0.1-0.4-0.4-0.8-0.6-1.1c-0.3-0.3-0.6-0.6-1-0.7c-0.4-0.2-0.9-0.3-1.4-0.3c-1.1,0-1.9,0.3-2.6,0.9
		c-0.6,0.6-1,1.5-1.2,2.6H265.9z"/>
	<path class="st0" d="M274.1,24.6c0.3-0.3,0.6-0.6,0.9-0.8c0.3-0.3,0.7-0.5,1-0.7c0.4-0.2,0.7-0.3,1.1-0.4c0.4-0.1,0.8-0.2,1.3-0.2
		c0.7,0,1.4,0.1,1.9,0.4c0.6,0.2,1,0.6,1.4,1c0.4,0.4,0.7,1,0.9,1.6s0.3,1.3,0.3,2.1v8.5h-2.6v-8.5c0-1-0.2-1.7-0.7-2.2
		c-0.4-0.5-1.1-0.8-2-0.8c-0.7,0-1.3,0.2-1.9,0.5c-0.6,0.3-1.1,0.7-1.6,1.3v9.8h-2.6V22.8h1.5c0.4,0,0.6,0.2,0.7,0.5L274.1,24.6z"/>
	<path class="st0" d="M291.1,36.4c-1.1,0-1.9-0.3-2.5-0.9c-0.6-0.6-0.9-1.5-0.9-2.6v-8h-1.6c-0.1,0-0.3,0-0.4-0.1
		c-0.1-0.1-0.2-0.2-0.2-0.4v-1l2.2-0.3l0.6-4c0-0.1,0.1-0.3,0.2-0.3c0.1-0.1,0.2-0.1,0.4-0.1h1.3V23h3.8v1.9h-3.8v7.9
		c0,0.5,0.1,0.9,0.4,1.2c0.3,0.3,0.6,0.4,1,0.4c0.2,0,0.4,0,0.6-0.1c0.2-0.1,0.3-0.1,0.4-0.2c0.1-0.1,0.2-0.1,0.3-0.2
		c0.1-0.1,0.2-0.1,0.2-0.1c0.1,0,0.2,0,0.2,0.1c0,0,0.1,0.1,0.2,0.2l0.8,1.2c-0.4,0.4-0.9,0.7-1.5,0.9
		C292.4,36.3,291.8,36.4,291.1,36.4z"/>
	<path class="st0" d="M299.6,25.4c0.4-0.9,1-1.6,1.6-2.1s1.3-0.8,2.2-0.8c0.3,0,0.6,0,0.8,0.1c0.3,0.1,0.5,0.2,0.7,0.3l-0.2,1.9
		c-0.1,0.2-0.2,0.4-0.4,0.4c-0.1,0-0.3,0-0.6-0.1c-0.2,0-0.5-0.1-0.8-0.1c-0.4,0-0.8,0.1-1.1,0.2c-0.3,0.1-0.6,0.3-0.9,0.5
		c-0.3,0.2-0.5,0.5-0.7,0.9c-0.2,0.3-0.4,0.7-0.5,1.2v8.4h-2.6V22.8h1.5c0.3,0,0.5,0.1,0.6,0.2c0.1,0.1,0.2,0.3,0.2,0.5L299.6,25.4z
		"/>
	<path class="st0" d="M312.7,22.6c1,0,1.9,0.2,2.7,0.5c0.8,0.3,1.5,0.8,2,1.4c0.6,0.6,1,1.3,1.3,2.2c0.3,0.8,0.4,1.8,0.4,2.9
		c0,1.1-0.1,2-0.4,2.9c-0.3,0.9-0.7,1.6-1.3,2.2c-0.6,0.6-1.2,1.1-2,1.4c-0.8,0.3-1.7,0.5-2.7,0.5c-1,0-1.9-0.2-2.7-0.5
		c-0.8-0.3-1.5-0.8-2-1.4c-0.6-0.6-1-1.3-1.3-2.2c-0.3-0.9-0.5-1.8-0.5-2.9c0-1.1,0.2-2,0.5-2.9c0.3-0.8,0.7-1.6,1.3-2.2
		c0.6-0.6,1.2-1.1,2-1.4C310.8,22.7,311.7,22.6,312.7,22.6z M312.7,34.4c1.3,0,2.2-0.4,2.8-1.3c0.6-0.9,0.9-2.1,0.9-3.6
		c0-1.5-0.3-2.8-0.9-3.6c-0.6-0.9-1.6-1.3-2.8-1.3c-1.3,0-2.2,0.4-2.9,1.3c-0.6,0.9-0.9,2.1-0.9,3.6c0,1.5,0.3,2.8,0.9,3.6
		C310.5,33.9,311.4,34.4,312.7,34.4z"/>
	<path class="st0" d="M340.7,36.2h-2.8v-19h2.8V36.2z"/>
	<path class="st0" d="M347.7,24.6c0.3-0.3,0.6-0.6,0.9-0.8c0.3-0.3,0.7-0.5,1-0.7c0.4-0.2,0.7-0.3,1.1-0.4c0.4-0.1,0.8-0.2,1.3-0.2
		c0.7,0,1.4,0.1,1.9,0.4c0.6,0.2,1,0.6,1.4,1c0.4,0.4,0.7,1,0.9,1.6s0.3,1.3,0.3,2.1v8.5H354v-8.5c0-1-0.2-1.7-0.7-2.2
		c-0.4-0.5-1.1-0.8-2-0.8c-0.7,0-1.3,0.2-1.9,0.5c-0.6,0.3-1.1,0.7-1.6,1.3v9.8h-2.6V22.8h1.5c0.4,0,0.6,0.2,0.7,0.5L347.7,24.6z"/>
	<path class="st0" d="M364.7,36.4c-1.1,0-1.9-0.3-2.5-0.9c-0.6-0.6-0.9-1.5-0.9-2.6v-8h-1.6c-0.1,0-0.3,0-0.4-0.1
		c-0.1-0.1-0.2-0.2-0.2-0.4v-1l2.2-0.3l0.6-4c0-0.1,0.1-0.3,0.2-0.3c0.1-0.1,0.2-0.1,0.4-0.1h1.3V23h3.8v1.9h-3.8v7.9
		c0,0.5,0.1,0.9,0.4,1.2c0.3,0.3,0.6,0.4,1,0.4c0.2,0,0.4,0,0.6-0.1c0.2-0.1,0.3-0.1,0.4-0.2c0.1-0.1,0.2-0.1,0.3-0.2
		c0.1-0.1,0.2-0.1,0.2-0.1c0.1,0,0.2,0,0.2,0.1c0,0,0.1,0.1,0.2,0.2l0.8,1.2c-0.4,0.4-0.9,0.7-1.5,0.9
		C366,36.3,365.3,36.4,364.7,36.4z"/>
	<path class="st0" d="M381.7,34.3c-0.3,0.4-0.7,0.7-1.1,1c-0.4,0.3-0.9,0.5-1.3,0.7c-0.5,0.2-0.9,0.3-1.4,0.4
		c-0.5,0.1-1,0.1-1.5,0.1c-0.9,0-1.8-0.2-2.6-0.5c-0.8-0.3-1.5-0.8-2-1.4c-0.6-0.6-1-1.3-1.3-2.2c-0.3-0.9-0.5-1.9-0.5-3.1
		c0-0.9,0.1-1.8,0.4-2.6c0.3-0.8,0.7-1.5,1.2-2.1c0.5-0.6,1.2-1.1,2-1.4c0.8-0.3,1.7-0.5,2.6-0.5c0.8,0,1.6,0.1,2.3,0.4
		c0.7,0.3,1.3,0.7,1.8,1.2c0.5,0.5,0.9,1.1,1.2,1.9c0.3,0.7,0.4,1.6,0.4,2.6c0,0.4,0,0.7-0.1,0.8c-0.1,0.1-0.3,0.2-0.5,0.2h-8.8
		c0,0.8,0.1,1.5,0.3,2.1c0.2,0.6,0.5,1.1,0.8,1.5c0.4,0.4,0.8,0.7,1.3,0.9c0.5,0.2,1,0.3,1.7,0.3c0.6,0,1.1-0.1,1.5-0.2
		c0.4-0.1,0.8-0.3,1.1-0.4s0.6-0.3,0.8-0.4c0.2-0.1,0.4-0.2,0.5-0.2c0.2,0,0.4,0.1,0.5,0.2L381.7,34.3z M379.5,28
		c0-0.5-0.1-1-0.2-1.4c-0.1-0.4-0.4-0.8-0.6-1.1c-0.3-0.3-0.6-0.6-1-0.7c-0.4-0.2-0.9-0.3-1.4-0.3c-1.1,0-1.9,0.3-2.6,0.9
		c-0.6,0.6-1,1.5-1.2,2.6H379.5z"/>
	<path class="st0" d="M387.7,25.4c0.4-0.9,1-1.6,1.6-2.1s1.3-0.8,2.2-0.8c0.3,0,0.6,0,0.8,0.1c0.3,0.1,0.5,0.2,0.7,0.3l-0.2,1.9
		c-0.1,0.2-0.2,0.4-0.4,0.4c-0.1,0-0.3,0-0.6-0.1c-0.2,0-0.5-0.1-0.8-0.1c-0.4,0-0.8,0.1-1.1,0.2c-0.3,0.1-0.6,0.3-0.9,0.5
		c-0.3,0.2-0.5,0.5-0.7,0.9c-0.2,0.3-0.4,0.7-0.5,1.2v8.4h-2.6V22.8h1.5c0.3,0,0.5,0.1,0.6,0.2c0.1,0.1,0.2,0.3,0.2,0.5L387.7,25.4z
		"/>
	<path class="st0" d="M407.3,22.8l-5.4,13.4h-2.3l-5.4-13.4h2.1c0.2,0,0.4,0,0.5,0.1c0.1,0.1,0.2,0.2,0.3,0.4l3.2,8.2
		c0.1,0.3,0.2,0.7,0.3,1c0.1,0.3,0.2,0.7,0.2,1c0.1-0.3,0.1-0.7,0.2-1c0.1-0.3,0.2-0.7,0.3-1l3.2-8.2c0.1-0.1,0.1-0.3,0.3-0.4
		c0.1-0.1,0.3-0.1,0.5-0.1H407.3z"/>
	<path class="st0" d="M420.6,34.3c-0.3,0.4-0.7,0.7-1.1,1c-0.4,0.3-0.9,0.5-1.3,0.7c-0.5,0.2-0.9,0.3-1.4,0.4
		c-0.5,0.1-1,0.1-1.5,0.1c-0.9,0-1.8-0.2-2.6-0.5c-0.8-0.3-1.5-0.8-2-1.4c-0.6-0.6-1-1.3-1.3-2.2c-0.3-0.9-0.5-1.9-0.5-3.1
		c0-0.9,0.1-1.8,0.4-2.6c0.3-0.8,0.7-1.5,1.2-2.1c0.5-0.6,1.2-1.1,2-1.4c0.8-0.3,1.7-0.5,2.6-0.5c0.8,0,1.6,0.1,2.3,0.4
		c0.7,0.3,1.3,0.7,1.8,1.2c0.5,0.5,0.9,1.1,1.2,1.9c0.3,0.7,0.4,1.6,0.4,2.6c0,0.4,0,0.7-0.1,0.8c-0.1,0.1-0.3,0.2-0.5,0.2h-8.8
		c0,0.8,0.1,1.5,0.3,2.1c0.2,0.6,0.5,1.1,0.8,1.5c0.4,0.4,0.8,0.7,1.3,0.9c0.5,0.2,1,0.3,1.7,0.3c0.6,0,1.1-0.1,1.5-0.2
		c0.4-0.1,0.8-0.3,1.1-0.4s0.6-0.3,0.8-0.4c0.2-0.1,0.4-0.2,0.5-0.2c0.2,0,0.4,0.1,0.5,0.2L420.6,34.3z M418.5,28
		c0-0.5-0.1-1-0.2-1.4c-0.1-0.4-0.4-0.8-0.6-1.1c-0.3-0.3-0.6-0.6-1-0.7c-0.4-0.2-0.9-0.3-1.4-0.3c-1.1,0-1.9,0.3-2.6,0.9
		c-0.6,0.6-1,1.5-1.2,2.6H418.5z"/>
	<path class="st0" d="M426.7,24.6c0.3-0.3,0.6-0.6,0.9-0.8c0.3-0.3,0.7-0.5,1-0.7c0.4-0.2,0.7-0.3,1.1-0.4c0.4-0.1,0.8-0.2,1.3-0.2
		c0.7,0,1.4,0.1,1.9,0.4c0.6,0.2,1,0.6,1.4,1c0.4,0.4,0.7,1,0.9,1.6s0.3,1.3,0.3,2.1v8.5H433v-8.5c0-1-0.2-1.7-0.7-2.2
		c-0.4-0.5-1.1-0.8-2-0.8c-0.7,0-1.3,0.2-1.9,0.5c-0.6,0.3-1.1,0.7-1.6,1.3v9.8h-2.6V22.8h1.5c0.4,0,0.6,0.2,0.7,0.5L426.7,24.6z"/>
	<path class="st0" d="M449.1,25.3c-0.1,0.1-0.2,0.2-0.2,0.2c-0.1,0.1-0.2,0.1-0.3,0.1s-0.3-0.1-0.4-0.2c-0.2-0.1-0.3-0.2-0.6-0.4
		c-0.2-0.1-0.5-0.2-0.8-0.4c-0.3-0.1-0.7-0.2-1.2-0.2c-0.6,0-1.2,0.1-1.7,0.3c-0.5,0.2-0.9,0.6-1.2,1c-0.3,0.4-0.6,0.9-0.7,1.5
		c-0.2,0.6-0.3,1.3-0.3,2c0,0.8,0.1,1.5,0.3,2.1s0.4,1.1,0.8,1.5c0.3,0.4,0.7,0.7,1.2,1c0.5,0.2,1,0.3,1.6,0.3c0.6,0,1-0.1,1.4-0.2
		c0.4-0.1,0.7-0.3,0.9-0.4c0.2-0.2,0.4-0.3,0.6-0.4c0.2-0.1,0.3-0.2,0.5-0.2c0.2,0,0.4,0.1,0.5,0.2l0.7,1c-0.3,0.4-0.7,0.7-1,1
		c-0.4,0.3-0.8,0.5-1.2,0.6c-0.4,0.2-0.9,0.3-1.4,0.4c-0.5,0.1-0.9,0.1-1.4,0.1c-0.8,0-1.6-0.2-2.3-0.5c-0.7-0.3-1.4-0.8-1.9-1.3
		c-0.5-0.6-1-1.3-1.3-2.2c-0.3-0.9-0.5-1.8-0.5-2.9c0-1,0.1-1.9,0.4-2.8c0.3-0.8,0.7-1.6,1.2-2.2c0.5-0.6,1.2-1.1,2-1.4
		c0.8-0.3,1.7-0.5,2.7-0.5c1,0,1.8,0.2,2.5,0.5c0.7,0.3,1.4,0.7,2,1.3L449.1,25.3z"/>
	<path class="st0" d="M456.2,18.6c0,0.2,0,0.5-0.1,0.7c-0.1,0.2-0.2,0.4-0.4,0.6c-0.2,0.2-0.4,0.3-0.6,0.4c-0.2,0.1-0.4,0.1-0.7,0.1
		c-0.2,0-0.5,0-0.7-0.1c-0.2-0.1-0.4-0.2-0.6-0.4c-0.2-0.2-0.3-0.4-0.4-0.6c-0.1-0.2-0.1-0.4-0.1-0.7c0-0.2,0-0.5,0.1-0.7
		c0.1-0.2,0.2-0.4,0.4-0.6c0.2-0.2,0.3-0.3,0.6-0.4c0.2-0.1,0.4-0.1,0.7-0.1c0.2,0,0.5,0,0.7,0.1c0.2,0.1,0.4,0.2,0.6,0.4
		c0.2,0.2,0.3,0.4,0.4,0.6C456.1,18.2,456.2,18.4,456.2,18.6z M455.7,22.8v13.4h-2.6V22.8H455.7z"/>
	<path class="st0" d="M465.8,22.6c1,0,1.9,0.2,2.7,0.5c0.8,0.3,1.5,0.8,2,1.4c0.6,0.6,1,1.3,1.3,2.2c0.3,0.8,0.4,1.8,0.4,2.9
		c0,1.1-0.1,2-0.4,2.9c-0.3,0.9-0.7,1.6-1.3,2.2c-0.6,0.6-1.2,1.1-2,1.4c-0.8,0.3-1.7,0.5-2.7,0.5c-1,0-1.9-0.2-2.7-0.5
		c-0.8-0.3-1.5-0.8-2-1.4c-0.6-0.6-1-1.3-1.3-2.2c-0.3-0.9-0.5-1.8-0.5-2.9c0-1.1,0.2-2,0.5-2.9c0.3-0.8,0.7-1.6,1.3-2.2
		c0.6-0.6,1.2-1.1,2-1.4C463.9,22.7,464.8,22.6,465.8,22.6z M465.8,34.4c1.3,0,2.2-0.4,2.8-1.3c0.6-0.9,0.9-2.1,0.9-3.6
		c0-1.5-0.3-2.8-0.9-3.6s-1.6-1.3-2.8-1.3c-1.3,0-2.2,0.4-2.9,1.3c-0.6,0.9-0.9,2.1-0.9,3.6c0,1.5,0.3,2.8,0.9,3.6
		C463.5,33.9,464.5,34.4,465.8,34.4z M469.8,17l-3.1,3.4c-0.1,0.1-0.3,0.3-0.4,0.3c-0.1,0.1-0.3,0.1-0.5,0.1h-1.6l2-3.2
		c0.1-0.2,0.3-0.4,0.4-0.5c0.1-0.1,0.4-0.2,0.7-0.2H469.8z"/>
	<path class="st0" d="M478.2,24.6c0.3-0.3,0.6-0.6,0.9-0.8c0.3-0.3,0.7-0.5,1-0.7c0.4-0.2,0.7-0.3,1.1-0.4c0.4-0.1,0.8-0.2,1.3-0.2
		c0.7,0,1.4,0.1,1.9,0.4c0.6,0.2,1,0.6,1.4,1c0.4,0.4,0.7,1,0.9,1.6s0.3,1.3,0.3,2.1v8.5h-2.6v-8.5c0-1-0.2-1.7-0.7-2.2
		c-0.4-0.5-1.1-0.8-2-0.8c-0.7,0-1.3,0.2-1.9,0.5c-0.6,0.3-1.1,0.7-1.6,1.3v9.8h-2.6V22.8h1.5c0.4,0,0.6,0.2,0.7,0.5L478.2,24.6z"/>
	<path class="st0" d="M262.2,44.2V65h-3.4V51.5c0-0.5,0-1.1,0.1-1.7l-6.3,11.8c-0.3,0.6-0.8,0.8-1.4,0.8h-0.5
		c-0.6,0-1.1-0.3-1.4-0.8l-6.4-11.9c0,0.3,0.1,0.6,0.1,0.9s0,0.6,0,0.8V65h-3.4V44.2h2.9c0.2,0,0.3,0,0.4,0c0.1,0,0.2,0,0.3,0.1
		c0.1,0,0.2,0.1,0.3,0.2c0.1,0.1,0.2,0.2,0.2,0.3l6.2,11.6c0.2,0.3,0.3,0.6,0.5,1c0.1,0.3,0.3,0.7,0.4,1c0.1-0.4,0.3-0.7,0.4-1
		c0.1-0.3,0.3-0.7,0.5-1l6.1-11.5c0.1-0.1,0.2-0.3,0.2-0.3c0.1-0.1,0.2-0.1,0.3-0.2c0.1,0,0.2-0.1,0.3-0.1c0.1,0,0.3,0,0.4,0H262.2z
		"/>
	<path class="st0" d="M280.1,50.2V65h-2.2c-0.5,0-0.8-0.2-0.9-0.6l-0.2-1.2c-0.6,0.6-1.3,1.1-2,1.5c-0.7,0.4-1.6,0.6-2.6,0.6
		c-0.8,0-1.5-0.1-2.1-0.4c-0.6-0.3-1.1-0.7-1.6-1.2c-0.4-0.5-0.7-1.1-1-1.8c-0.2-0.7-0.3-1.4-0.3-2.3v-9.4h3.6v9.4
		c0,0.9,0.2,1.6,0.6,2.1c0.4,0.5,1,0.7,1.9,0.7c0.6,0,1.2-0.1,1.7-0.4c0.5-0.3,1-0.7,1.5-1.1V50.2H280.1z"/>
	<path class="st0" d="M288.7,43.6V65h-3.6V43.6H288.7z"/>
	<path class="st0" d="M308.6,65H305V52.9h-6.9v8c0,0.5,0.1,0.8,0.3,1.1c0.2,0.3,0.5,0.4,0.9,0.4c0.2,0,0.4,0,0.6-0.1
		s0.3-0.1,0.4-0.2c0.1-0.1,0.2-0.1,0.3-0.2c0.1-0.1,0.2-0.1,0.3-0.1c0.1,0,0.2,0,0.3,0.1c0.1,0.1,0.1,0.1,0.2,0.2l1.1,1.7
		c-0.5,0.4-1.1,0.8-1.8,1c-0.7,0.2-1.4,0.3-2.1,0.3c-1.3,0-2.3-0.4-3-1.1c-0.7-0.7-1-1.7-1-3v-8.3h-1.5c-0.2,0-0.4-0.1-0.5-0.2
		c-0.1-0.1-0.2-0.3-0.2-0.6v-1.4l2.4-0.4l0.7-4c0-0.2,0.1-0.3,0.3-0.4c0.1-0.1,0.3-0.2,0.5-0.2h1.8v4.7h10.4V65z M309.2,45.9
		c0,0.3-0.1,0.6-0.2,0.9c-0.1,0.3-0.3,0.5-0.5,0.7c-0.2,0.2-0.5,0.4-0.7,0.5c-0.3,0.1-0.6,0.2-0.9,0.2c-0.3,0-0.6-0.1-0.9-0.2
		c-0.3-0.1-0.5-0.3-0.7-0.5c-0.2-0.2-0.4-0.4-0.5-0.7c-0.1-0.3-0.2-0.6-0.2-0.9c0-0.3,0.1-0.6,0.2-0.9c0.1-0.3,0.3-0.5,0.5-0.7
		s0.4-0.4,0.7-0.5c0.3-0.1,0.6-0.2,0.9-0.2c0.3,0,0.6,0.1,0.9,0.2c0.3,0.1,0.5,0.3,0.7,0.5c0.2,0.2,0.4,0.4,0.5,0.7
		C309.1,45.2,309.2,45.5,309.2,45.9z"/>
	<path class="st0" d="M326.6,50.7v1.3c0,0.4-0.3,0.7-0.8,0.8l-1.3,0.2c0.2,0.5,0.3,1.1,0.3,1.7c0,0.7-0.1,1.4-0.4,2
		c-0.3,0.6-0.7,1.1-1.2,1.5c-0.5,0.4-1.1,0.7-1.8,1c-0.7,0.2-1.5,0.3-2.3,0.3c-0.3,0-0.6,0-0.8,0c-0.3,0-0.5-0.1-0.8-0.1
		c-0.5,0.3-0.7,0.6-0.7,0.9c0,0.3,0.1,0.5,0.4,0.7c0.3,0.1,0.6,0.2,1.1,0.3c0.5,0.1,1,0.1,1.5,0.1c0.6,0,1.2,0,1.8,0.1
		c0.6,0,1.2,0.1,1.8,0.3c0.6,0.1,1.1,0.3,1.5,0.6c0.5,0.3,0.8,0.6,1.1,1.1c0.3,0.4,0.4,1,0.4,1.7c0,0.7-0.2,1.3-0.5,1.9
		c-0.3,0.6-0.8,1.2-1.4,1.6c-0.6,0.5-1.4,0.9-2.2,1.2c-0.9,0.3-1.9,0.4-3,0.4c-1.1,0-2.1-0.1-2.9-0.3c-0.8-0.2-1.5-0.5-2.1-0.9
		c-0.5-0.4-1-0.8-1.2-1.2c-0.3-0.5-0.4-1-0.4-1.5c0-0.7,0.2-1.3,0.6-1.7c0.4-0.5,1-0.8,1.7-1.1c-0.4-0.2-0.7-0.5-0.9-0.8
		c-0.2-0.3-0.3-0.8-0.3-1.3c0-0.2,0-0.4,0.1-0.7c0.1-0.2,0.2-0.5,0.4-0.7c0.2-0.2,0.4-0.4,0.6-0.7c0.2-0.2,0.5-0.4,0.8-0.6
		c-0.7-0.4-1.3-0.9-1.8-1.6c-0.4-0.7-0.6-1.5-0.6-2.4c0-0.7,0.1-1.4,0.4-2c0.3-0.6,0.7-1.1,1.2-1.5c0.5-0.4,1.1-0.7,1.9-1
		c0.7-0.2,1.5-0.3,2.3-0.3c0.6,0,1.2,0.1,1.8,0.2c0.6,0.1,1.1,0.3,1.5,0.6H326.6z M323.1,65.7c0-0.3-0.1-0.5-0.3-0.7
		c-0.2-0.2-0.4-0.3-0.7-0.4c-0.3-0.1-0.6-0.2-1-0.2c-0.4,0-0.8-0.1-1.3-0.1c-0.4,0-0.9,0-1.4-0.1c-0.5,0-0.9-0.1-1.4-0.1
		c-0.4,0.2-0.7,0.5-1,0.8c-0.2,0.3-0.4,0.6-0.4,1c0,0.3,0.1,0.5,0.2,0.7c0.1,0.2,0.3,0.4,0.6,0.6c0.3,0.2,0.7,0.3,1.1,0.4
		c0.5,0.1,1,0.1,1.7,0.1c0.7,0,1.2-0.1,1.7-0.2c0.5-0.1,0.9-0.2,1.2-0.4c0.3-0.2,0.5-0.4,0.7-0.6C323,66.2,323.1,65.9,323.1,65.7z
		 M319,57.3c0.4,0,0.8-0.1,1.2-0.2c0.3-0.1,0.6-0.3,0.8-0.5c0.2-0.2,0.4-0.5,0.5-0.8c0.1-0.3,0.2-0.6,0.2-1c0-0.7-0.2-1.3-0.7-1.7
		c-0.4-0.4-1.1-0.6-2-0.6s-1.5,0.2-2,0.6c-0.4,0.4-0.7,1-0.7,1.7c0,0.3,0.1,0.7,0.2,1s0.3,0.6,0.5,0.8c0.2,0.2,0.5,0.4,0.8,0.5
		C318.2,57.2,318.6,57.3,319,57.3z"/>
	<path class="st0" d="M332.8,58.1c0.1,0.8,0.2,1.4,0.4,2c0.2,0.6,0.5,1,0.8,1.4c0.3,0.4,0.8,0.6,1.2,0.8c0.5,0.2,1,0.3,1.6,0.3
		c0.6,0,1.1-0.1,1.5-0.2c0.4-0.1,0.8-0.3,1.1-0.4c0.3-0.2,0.6-0.3,0.8-0.4c0.2-0.1,0.5-0.2,0.7-0.2c0.3,0,0.5,0.1,0.7,0.3l1,1.3
		c-0.4,0.5-0.8,0.8-1.3,1.2c-0.5,0.3-1,0.6-1.5,0.7s-1.1,0.3-1.6,0.4c-0.6,0.1-1.1,0.1-1.6,0.1c-1,0-2-0.2-2.9-0.5
		c-0.9-0.3-1.7-0.8-2.3-1.5s-1.2-1.5-1.5-2.5c-0.4-1-0.6-2.1-0.6-3.4c0-1,0.2-2,0.5-2.8c0.3-0.9,0.8-1.7,1.4-2.3
		c0.6-0.7,1.4-1.2,2.2-1.6c0.9-0.4,1.9-0.6,3-0.6c0.9,0,1.8,0.1,2.6,0.4c0.8,0.3,1.5,0.7,2,1.3c0.6,0.6,1,1.3,1.3,2.1
		c0.3,0.8,0.5,1.8,0.5,2.8c0,0.5-0.1,0.9-0.2,1.1c-0.1,0.2-0.3,0.3-0.7,0.3H332.8z M339.6,55.9c0-0.5-0.1-0.9-0.2-1.3
		c-0.1-0.4-0.3-0.8-0.6-1.1c-0.3-0.3-0.6-0.5-1-0.7c-0.4-0.2-0.9-0.3-1.4-0.3c-1,0-1.8,0.3-2.4,0.9c-0.6,0.6-1,1.4-1.1,2.5H339.6z"
		/>
	<path class="st0" d="M350.2,52c0.3-0.3,0.6-0.6,0.9-0.8c0.3-0.3,0.7-0.5,1.1-0.6c0.4-0.2,0.8-0.3,1.2-0.4c0.4-0.1,0.9-0.2,1.4-0.2
		c0.8,0,1.5,0.1,2.1,0.4c0.6,0.3,1.1,0.7,1.6,1.2c0.4,0.5,0.7,1.1,1,1.8c0.2,0.7,0.3,1.4,0.3,2.3V65h-3.6v-9.4
		c0-0.9-0.2-1.6-0.6-2.1c-0.4-0.5-1-0.7-1.9-0.7c-0.6,0-1.2,0.1-1.7,0.4c-0.5,0.3-1,0.7-1.5,1.1V65h-3.6V50.2h2.2
		c0.5,0,0.8,0.2,0.9,0.6L350.2,52z"/>
	<path class="st0" d="M367.3,58.1c0.1,0.8,0.2,1.4,0.4,2c0.2,0.6,0.5,1,0.8,1.4c0.3,0.4,0.8,0.6,1.2,0.8c0.5,0.2,1,0.3,1.6,0.3
		c0.6,0,1.1-0.1,1.5-0.2c0.4-0.1,0.8-0.3,1.1-0.4c0.3-0.2,0.6-0.3,0.8-0.4c0.2-0.1,0.5-0.2,0.7-0.2c0.3,0,0.5,0.1,0.7,0.3l1,1.3
		c-0.4,0.5-0.8,0.8-1.3,1.2c-0.5,0.3-1,0.6-1.5,0.7s-1.1,0.3-1.6,0.4c-0.6,0.1-1.1,0.1-1.6,0.1c-1,0-2-0.2-2.9-0.5
		c-0.9-0.3-1.7-0.8-2.3-1.5c-0.7-0.7-1.2-1.5-1.5-2.5c-0.4-1-0.6-2.1-0.6-3.4c0-1,0.2-2,0.5-2.8c0.3-0.9,0.8-1.7,1.4-2.3
		c0.6-0.7,1.4-1.2,2.2-1.6c0.9-0.4,1.9-0.6,3-0.6c0.9,0,1.8,0.1,2.6,0.4c0.8,0.3,1.5,0.7,2,1.3c0.6,0.6,1,1.3,1.3,2.1
		c0.3,0.8,0.5,1.8,0.5,2.8c0,0.5-0.1,0.9-0.2,1.1c-0.1,0.2-0.3,0.3-0.7,0.3H367.3z M374.1,55.9c0-0.5-0.1-0.9-0.2-1.3
		c-0.1-0.4-0.3-0.8-0.6-1.1c-0.3-0.3-0.6-0.5-1-0.7c-0.4-0.2-0.9-0.3-1.4-0.3c-1,0-1.8,0.3-2.4,0.9c-0.6,0.6-1,1.4-1.1,2.5H374.1z"
		/>
	<path class="st0" d="M384.7,52.8c0.5-0.9,1-1.6,1.6-2.1c0.6-0.5,1.4-0.8,2.2-0.8c0.7,0,1.2,0.1,1.6,0.4l-0.2,2.7
		c0,0.2-0.1,0.3-0.2,0.4c-0.1,0.1-0.2,0.1-0.4,0.1c-0.1,0-0.4,0-0.6-0.1c-0.3,0-0.6-0.1-0.8-0.1c-0.4,0-0.7,0.1-1.1,0.2
		c-0.3,0.1-0.6,0.3-0.8,0.5c-0.2,0.2-0.5,0.5-0.6,0.8c-0.2,0.3-0.4,0.7-0.5,1.1V65h-3.6V50.2h2.1c0.4,0,0.6,0.1,0.8,0.2
		c0.1,0.1,0.2,0.4,0.3,0.7L384.7,52.8z"/>
	<path class="st0" d="M393,52.3c1.7-1.6,3.7-2.3,6.1-2.3c0.9,0,1.6,0.1,2.3,0.4c0.7,0.3,1.3,0.7,1.7,1.2c0.5,0.5,0.8,1.1,1.1,1.8
		c0.2,0.7,0.4,1.5,0.4,2.3V65H403c-0.3,0-0.6-0.1-0.8-0.2c-0.2-0.1-0.3-0.3-0.4-0.6l-0.3-1.1c-0.4,0.3-0.7,0.6-1.1,0.9
		c-0.4,0.3-0.7,0.5-1.1,0.6c-0.4,0.2-0.8,0.3-1.2,0.4s-0.9,0.1-1.4,0.1c-0.6,0-1.2-0.1-1.7-0.3c-0.5-0.2-1-0.4-1.4-0.8
		c-0.4-0.3-0.7-0.8-0.9-1.3c-0.2-0.5-0.3-1.1-0.3-1.7c0-0.4,0.1-0.7,0.2-1.1c0.1-0.4,0.3-0.7,0.6-1.1c0.3-0.3,0.7-0.7,1.1-1
		s1-0.6,1.7-0.8c0.7-0.2,1.4-0.4,2.3-0.5c0.9-0.1,1.9-0.2,3-0.3v-0.9c0-1-0.2-1.7-0.6-2.2c-0.4-0.5-1-0.7-1.8-0.7
		c-0.6,0-1.1,0.1-1.4,0.2c-0.4,0.1-0.7,0.3-1,0.5c-0.3,0.2-0.5,0.3-0.8,0.5c-0.2,0.1-0.5,0.2-0.8,0.2c-0.2,0-0.5-0.1-0.6-0.2
		c-0.2-0.1-0.3-0.3-0.4-0.5L393,52.3z M401.2,58.7c-1,0-1.9,0.1-2.6,0.3c-0.7,0.1-1.3,0.3-1.7,0.5c-0.4,0.2-0.7,0.4-0.9,0.7
		c-0.2,0.3-0.3,0.6-0.3,0.9c0,0.6,0.2,1.1,0.6,1.3c0.4,0.3,0.9,0.4,1.4,0.4c0.7,0,1.4-0.1,1.9-0.4s1.1-0.7,1.6-1.2V58.7z"/>
	<path class="st0" d="M420,53.3c-0.1,0.1-0.2,0.2-0.3,0.3c-0.1,0.1-0.2,0.1-0.4,0.1c-0.2,0-0.4-0.1-0.5-0.2
		c-0.2-0.1-0.4-0.2-0.6-0.4c-0.2-0.1-0.5-0.3-0.9-0.4c-0.3-0.1-0.7-0.2-1.2-0.2c-0.6,0-1.2,0.1-1.6,0.3c-0.5,0.2-0.9,0.5-1.2,1
		c-0.3,0.4-0.5,0.9-0.7,1.5c-0.2,0.6-0.2,1.3-0.2,2c0,0.8,0.1,1.5,0.3,2.1c0.2,0.6,0.4,1.1,0.7,1.5c0.3,0.4,0.7,0.7,1.2,1
		c0.5,0.2,1,0.3,1.5,0.3c0.6,0,1-0.1,1.4-0.2c0.4-0.1,0.6-0.3,0.9-0.5c0.2-0.2,0.4-0.3,0.6-0.5c0.2-0.1,0.4-0.2,0.6-0.2
		c0.3,0,0.5,0.1,0.6,0.3l1,1.3c-0.4,0.5-0.8,0.8-1.3,1.2c-0.5,0.3-0.9,0.6-1.4,0.7c-0.5,0.2-1,0.3-1.5,0.4c-0.5,0.1-1,0.1-1.6,0.1
		c-0.9,0-1.8-0.2-2.6-0.5c-0.8-0.3-1.5-0.8-2.1-1.5c-0.6-0.7-1.1-1.5-1.4-2.4c-0.4-0.9-0.5-2-0.5-3.2c0-1.1,0.2-2.1,0.5-3
		c0.3-0.9,0.8-1.7,1.4-2.4c0.6-0.7,1.4-1.2,2.2-1.6c0.9-0.4,1.9-0.6,3.1-0.6c1.1,0,2.1,0.2,2.9,0.5c0.8,0.4,1.6,0.9,2.2,1.5
		L420,53.3z"/>
	<path class="st0" d="M428.9,45.9c0,0.3-0.1,0.6-0.2,0.9c-0.1,0.3-0.3,0.5-0.5,0.7c-0.2,0.2-0.4,0.4-0.7,0.5
		c-0.3,0.1-0.6,0.2-0.9,0.2c-0.3,0-0.6-0.1-0.9-0.2c-0.3-0.1-0.5-0.3-0.7-0.5s-0.4-0.4-0.5-0.7c-0.1-0.3-0.2-0.6-0.2-0.9
		c0-0.3,0.1-0.6,0.2-0.9c0.1-0.3,0.3-0.5,0.5-0.7c0.2-0.2,0.4-0.4,0.7-0.5c0.3-0.1,0.6-0.2,0.9-0.2c0.3,0,0.6,0.1,0.9,0.2
		c0.3,0.1,0.5,0.3,0.7,0.5c0.2,0.2,0.4,0.4,0.5,0.7C428.8,45.3,428.9,45.6,428.9,45.9z M428.4,50.2V65h-3.6V50.2H428.4z"/>
	<path class="st0" d="M440,50c1.1,0,2.1,0.2,3,0.5c0.9,0.4,1.7,0.9,2.3,1.5c0.6,0.7,1.1,1.4,1.5,2.4c0.3,0.9,0.5,2,0.5,3.2
		c0,1.2-0.2,2.2-0.5,3.2c-0.3,0.9-0.8,1.7-1.5,2.4c-0.6,0.7-1.4,1.2-2.3,1.5c-0.9,0.4-1.9,0.5-3,0.5c-1.1,0-2.1-0.2-3-0.5
		s-1.7-0.9-2.3-1.5c-0.6-0.7-1.1-1.5-1.5-2.4c-0.4-0.9-0.5-2-0.5-3.2c0-1.2,0.2-2.2,0.5-3.2c0.4-0.9,0.8-1.7,1.5-2.4
		c0.6-0.7,1.4-1.2,2.3-1.5C437.9,50.2,438.9,50,440,50z M440,62.5c1.2,0,2.1-0.4,2.7-1.2c0.6-0.8,0.9-2,0.9-3.6
		c0-1.6-0.3-2.8-0.9-3.6c-0.6-0.8-1.5-1.3-2.7-1.3c-1.2,0-2.2,0.4-2.8,1.3c-0.6,0.8-0.9,2.1-0.9,3.6c0,1.6,0.3,2.8,0.9,3.6
		C437.8,62.1,438.8,62.5,440,62.5z"/>
	<path class="st0" d="M454.8,52c0.3-0.3,0.6-0.6,0.9-0.8c0.3-0.3,0.7-0.5,1.1-0.6c0.4-0.2,0.8-0.3,1.2-0.4c0.4-0.1,0.9-0.2,1.4-0.2
		c0.8,0,1.5,0.1,2.1,0.4c0.6,0.3,1.1,0.7,1.6,1.2c0.4,0.5,0.7,1.1,1,1.8c0.2,0.7,0.3,1.4,0.3,2.3V65h-3.6v-9.4
		c0-0.9-0.2-1.6-0.6-2.1s-1-0.7-1.9-0.7c-0.6,0-1.2,0.1-1.7,0.4c-0.5,0.3-1,0.7-1.5,1.1V65h-3.6V50.2h2.2c0.5,0,0.8,0.2,0.9,0.6
		L454.8,52z"/>
	<path class="st0" d="M468.8,52.3c1.7-1.6,3.7-2.3,6.1-2.3c0.9,0,1.6,0.1,2.3,0.4c0.7,0.3,1.3,0.7,1.7,1.2c0.5,0.5,0.8,1.1,1.1,1.8
		c0.2,0.7,0.4,1.5,0.4,2.3V65h-1.6c-0.3,0-0.6-0.1-0.8-0.2c-0.2-0.1-0.3-0.3-0.4-0.6l-0.3-1.1c-0.4,0.3-0.7,0.6-1.1,0.9
		c-0.4,0.3-0.7,0.5-1.1,0.6c-0.4,0.2-0.8,0.3-1.2,0.4s-0.9,0.1-1.4,0.1c-0.6,0-1.2-0.1-1.7-0.3c-0.5-0.2-1-0.4-1.4-0.8
		c-0.4-0.3-0.7-0.8-0.9-1.3c-0.2-0.5-0.3-1.1-0.3-1.7c0-0.4,0.1-0.7,0.2-1.1c0.1-0.4,0.3-0.7,0.6-1.1c0.3-0.3,0.7-0.7,1.1-1
		s1-0.6,1.7-0.8c0.7-0.2,1.4-0.4,2.3-0.5c0.9-0.1,1.9-0.2,3-0.3v-0.9c0-1-0.2-1.7-0.6-2.2c-0.4-0.5-1-0.7-1.8-0.7
		c-0.6,0-1.1,0.1-1.4,0.2c-0.4,0.1-0.7,0.3-1,0.5c-0.3,0.2-0.5,0.3-0.8,0.5c-0.2,0.1-0.5,0.2-0.8,0.2c-0.2,0-0.5-0.1-0.6-0.2
		c-0.2-0.1-0.3-0.3-0.4-0.5L468.8,52.3z M477,58.7c-1,0-1.9,0.1-2.6,0.3c-0.7,0.1-1.3,0.3-1.7,0.5c-0.4,0.2-0.7,0.4-0.9,0.7
		c-0.2,0.3-0.3,0.6-0.3,0.9c0,0.6,0.2,1.1,0.6,1.3c0.4,0.3,0.9,0.4,1.4,0.4c0.7,0,1.4-0.1,1.9-0.4s1.1-0.7,1.6-1.2V58.7z"/>
	<path class="st0" d="M488.8,43.6V65h-3.6V43.6H488.8z"/>
</g>
<g>
	<path class="st1" d="M109.3,43.5h-17c-3.1,0-5.7-2.5-5.7-5.7V23.7c0-3.1,2.5-5.7,5.7-5.7h17c3.1,0,5.7,2.5,5.7,5.7v14.2
		C115,41,112.5,43.5,109.3,43.5z"/>
	<path class="st2" d="M109.3,18h-17c-3.1,0-5.7-2.5-5.7-5.7V6.7c0-3.1,2.5-5.7,5.7-5.7h17c3.1,0,5.7,2.5,5.7,5.7v5.7
		C115,15.5,112.5,18,109.3,18z"/>
	<path class="st3" d="M109.3,86.1h-17c-3.1,0-5.7-2.5-5.7-5.7V49.2c0-3.1,2.5-5.7,5.7-5.7h17c3.1,0,5.7,2.5,5.7,5.7v31.2
		C115,83.5,112.5,86.1,109.3,86.1z"/>
	<g>
		<path class="st2" d="M48.5,38.6c0.1-0.1,0.1-0.1,0.2-0.2l10.9-10.9c1.9-1.9,4-4,6-6l4.9-4.9l0,0c0.7-0.8,1.2-1.8,1.2-2.9
			c0-1.3-0.6-2.5-1.6-3.3l0,0C62.8,4.5,53.6,1,43.5,1c-10.1,0-19.3,3.5-26.6,9.4c-0.9,0.8-1.6,1.9-1.6,3.3c0,1.1,0.4,2.1,1.1,2.8
			c0.5,0.5,1.1,1.1,1.6,1.6l2.9,2.9c2.4,2.4,5.1,5.1,8,8l5.6,5.6c0.7,0.7,1.5,1.5,2.3,2.3l1.8,1.8c1.3,1.2,3,2,4.9,2
			C45.5,40.6,47.2,39.8,48.5,38.6z"/>
	</g>
	<g>
		<path class="st1" d="M48.5,48.4c0.1,0.1,0.1,0.1,0.2,0.2l10.9,10.9c1.9,1.9,4,4,6,6l4.9,4.9l0,0c0.7,0.8,1.2,1.8,1.2,2.9
			c0,1.3-0.6,2.5-1.6,3.3l0,0C62.8,82.5,53.6,86,43.5,86c-10.1,0-19.3-3.5-26.6-9.4c-0.9-0.8-1.6-1.9-1.6-3.3c0-1.1,0.4-2.1,1.1-2.8
			c0.5-0.5,1.1-1.1,1.6-1.6l2.9-2.9c2.4-2.4,5.1-5.1,8-8l5.6-5.6c0.7-0.7,1.5-1.5,2.3-2.3l1.8-1.8c1.3-1.2,3-2,4.9-2
			C45.5,46.4,47.2,47.2,48.5,48.4z"/>
	</g>
	<g>
		<g>
			<path class="st3" d="M209,81.8c0-1.2-0.5-2.3-1.3-3.1h0l-2.3-2.3c-0.9-0.9-1.9-1.9-2.9-2.9c0,0,0.1-0.1,0.1-0.1
				c-1.4-1.4-3-3-4.6-4.6l-2.9-2.9c-2.4-2.4-5.1-5.1-8-8l-5.6-5.6c-0.7-0.7-1.5-1.5-2.3-2.3l-1.8-1.8c-1.3-1.2-3-2-4.9-2
				s-3.6,0.8-4.9,2c-0.1,0.1-0.1,0.1-0.2,0.2l-10.9,10.9c-1.9,1.9-4,4-6,6l-5.8,5.8c-0.7,0.7-1.5,1.5-2.2,2.2c0,0,0.1,0.1,0.1,0.1
				c-1,1-2,2-2.9,2.9l-2.3,2.3h0c-0.8,0.8-1.3,1.9-1.3,3.1c0,2.3,1.9,4.3,4.3,4.3h64.5C207.1,86.1,209,84.2,209,81.8z"/>
		</g>
	</g>
	<g>
		<path class="st2" d="M134.2,80c1.2,0,2.3-0.5,3.1-1.3v0l2.3-2.3c0.9-0.9,1.9-1.9,2.9-2.9c0,0,0.1,0.1,0.1,0.1c1.4-1.4,3-3,4.6-4.6
			l2.9-2.9c2.4-2.4,5.1-5.1,8-8l5.6-5.6c0.7-0.7,1.5-1.5,2.3-2.3l1.8-1.8c1.2-1.3,2-3,2-4.9s-0.8-3.6-2-4.9
			c-0.1-0.1-0.1-0.1-0.2-0.2l-10.9-10.9c-1.9-1.9-4-4-6-6l-5.8-5.8c-0.7-0.7-1.5-1.5-2.2-2.2c0,0-0.1,0.1-0.1,0.1c-1-1-2-2-2.9-2.9
			l-2.3-2.3v0c-0.8-0.8-1.9-1.3-3.1-1.3c-2.3,0-4.3,1.9-4.3,4.3v64.5C130,78.1,131.9,80,134.2,80z"/>
	</g>
	<g>
		<path class="st1" d="M210.7,80c-1.2,0-2.3-0.5-3.1-1.3v0l-2.3-2.3c-0.9-0.9-1.9-1.9-2.9-2.9c0,0-0.1,0.1-0.1,0.1
			c-1.4-1.4-3-3-4.6-4.6l-2.9-2.9c-2.4-2.4-5.1-5.1-8-8l-5.6-5.6c-0.7-0.7-1.5-1.5-2.3-2.3l-1.8-1.8c-1.2-1.3-2-3-2-4.9
			s0.8-3.6,2-4.9c0.1-0.1,0.1-0.1,0.2-0.2l10.9-10.9c1.9-1.9,4-4,6-6l5.8-5.8c0.7-0.7,1.5-1.5,2.2-2.2c0,0,0.1,0.1,0.1,0.1
			c1-1,2-2,2.9-2.9l2.3-2.3v0c0.8-0.8,1.9-1.3,3.1-1.3c2.3,0,4.3,1.9,4.3,4.3v64.5C215,78.1,213.1,80,210.7,80z"/>
	</g>
	<g>
		<path class="st3" d="M38.6,38.6c-0.1-0.1-0.1-0.1-0.2-0.2L27.5,27.5c-1.9-1.9-4-4-6-6l-4.9-4.9l0,0c-0.8-0.7-1.8-1.2-2.9-1.2
			c-1.3,0-2.5,0.6-3.3,1.6l0,0C4.5,24.2,1,33.5,1,43.5c0,10.1,3.5,19.3,9.4,26.6c0.8,0.9,1.9,1.6,3.3,1.6c1.1,0,2.1-0.4,2.8-1.1
			c0.5-0.5,1.1-1.1,1.6-1.6l2.9-2.9c2.4-2.4,5.1-5.1,8-8l5.6-5.6c0.7-0.7,1.5-1.5,2.3-2.3l1.8-1.8c1.2-1.3,2-3,2-4.9
			C40.6,41.6,39.8,39.9,38.6,38.6z"/>
	</g>
</g>
</svg>
