<?xml version="1.0" encoding="utf-8"?>
<!-- Generator: Adobe Illustrator 23.1.1, SVG Export Plug-In . SVG Version: 6.00 Build 0)  -->
<svg version="1.1" id="Capa_1" xmlns="http://www.w3.org/2000/svg" xmlns:xlink="http://www.w3.org/1999/xlink" x="0px" y="0px"
	 viewBox="0 0 439.9 82.1" style="enable-background:new 0 0 439.9 82.1;" xml:space="preserve">
<style type="text/css">
	.st0{fill:#1E88E5;}
	.st1{fill:#B2DAFA;}
	.st2{fill:#030A8C;}
	.st3{fill:#FFFFFF;stroke:#FFFFFF;stroke-miterlimit:10;}
	.st4{fill:#021E73;}
</style>
<g>
	<path class="st0" d="M106.8,17h-17c-2.3,0-4.2,1.9-4.2,4.2v14.2c0,2.3,1.9,4.2,4.2,4.2h17c2.3,0,4.2-1.9,4.2-4.2V21.2
		C111,18.9,109.1,17,106.8,17z"/>
	<path class="st1" d="M106.8,0h-17c-2.3,0-4.2,1.9-4.2,4.2v5.7c0,2.3,1.9,4.2,4.2,4.2h17c2.3,0,4.2-1.9,4.2-4.2V4.2
		C111,1.9,109.1,0,106.8,0z"/>
	<path class="st2" d="M106.8,42.5h-17c-2.3,0-4.2,1.9-4.2,4.2v31.2c0,2.3,1.9,4.2,4.2,4.2h17c2.3,0,4.2-1.9,4.2-4.2V46.7
		C111,44.4,109.1,42.5,106.8,42.5z"/>
	<polygon class="st3" points="134.8,76.2 134.8,76.2 134.8,76.2 	"/>
	<polygon class="st3" points="134.8,76.2 134.8,76.2 134.8,76.2 	"/>
	<g>
		<path class="st0" d="M208.2,6c-0.8,0-1.5,0.3-2,0.9l-6,5.9l-24.5,24.3c-1,1-1.6,2.4-1.6,3.9c0,1.1,0.3,2.1,0.9,3
			c0.2,0.3,0.4,0.6,0.7,0.9l30.4,30.2c0.5,0.6,1.2,0.9,2,0.9c1.5,0,2.8-1.2,2.8-2.8V8.8C211,7.3,209.8,6,208.2,6z"/>
		<path class="st2" d="M198.2,71.4l-24.3-24.5c-1-1-2.4-1.6-3.9-1.6c-1.1,0-2.1,0.3-3,0.9c-0.3,0.2-0.6,0.4-0.9,0.7l-30.2,30.4
			c-0.6,0.5-0.9,1.2-0.9,2c0,1.5,1.2,2.8,2.8,2.8h64.5c1.5,0,2.8-1.2,2.8-2.8c0-0.8-0.3-1.5-0.9-2L198.2,71.4z"/>
		<path class="st1" d="M164.8,44.1c0.6-0.9,0.9-1.9,0.9-3c0-1.5-0.6-2.8-1.6-3.9L133.7,6.9c-0.5-0.6-1.2-0.9-2-0.9
			c-1.5,0-2.8,1.2-2.8,2.8v64.5c0,1.5,1.2,2.8,2.8,2.8c0.8,0,1.5-0.3,2-0.9l1.7-1.7l28.7-28.6C164.4,44.7,164.6,44.4,164.8,44.1z"/>
	</g>
	<polygon class="st3" points="205.2,76.2 205.2,76.2 205.2,76.2 	"/>
	<polygon class="st3" points="205.2,76.2 205.2,76.2 205.2,76.2 	"/>
	<g>
		<path class="st1" d="M37.2,35c1,1,2.4,1.6,3.9,1.6c1.4,0,2.8-0.6,3.9-1.6l22-22c0.5-0.5,0.8-1.2,0.8-1.9c0-0.8-0.4-1.6-1-2.1
			l-0.3-0.3C59.1,3,50.3,0,41,0c-9.4,0-18.3,3.1-25.7,9c-0.6,0.5-1,1.3-1,2.1c0,0.8,0.4,1.4,0.7,1.8L37.2,35z"/>
		<path class="st0" d="M66.8,68.9L44.9,47c-1-1-2.4-1.6-3.9-1.6c-1.5,0-2.8,0.6-3.9,1.6L15,69.2c-0.2,0.3-0.7,0.9-0.7,1.8
			c0,0.8,0.4,1.6,1,2.1c7.3,5.9,16.2,9,25.7,9c9.3,0,18.1-3,25.4-8.8l0.2-0.2c0.7-0.5,1-1.3,1-2.1c0-0.7-0.3-1.4-0.8-1.9L66.8,68.9z
			"/>
		<path class="st2" d="M35,37.1l-22-22c-0.5-0.5-1.2-0.8-1.9-0.8c-0.8,0-1.6,0.4-2.1,1l-0.3,0.3C3,23,0,31.8,0,41
			c0,9.4,3.1,18.3,9,25.7c0.5,0.6,1.3,1,2.1,1c0.8,0,1.4-0.4,1.8-0.7L35,44.9c1-1,1.6-2.4,1.6-3.9C36.6,39.6,36,38.2,35,37.1z"/>
	</g>
</g>
<g>
	<path class="st4" d="M227.2,28.1c0-5.3,3.3-8.4,7.4-8.4c2,0,3.6,1,4.6,2l-1.5,1.8c-0.8-0.8-1.8-1.4-3-1.4c-2.6,0-4.5,2.2-4.5,5.8
		c0,3.7,1.7,5.9,4.4,5.9c1.4,0,2.5-0.7,3.4-1.6l1.5,1.8c-1.3,1.5-3,2.3-5.1,2.3C230.4,36.3,227.2,33.4,227.2,28.1z"/>
	<path class="st4" d="M241.2,30c0-3.9,2.7-6.3,5.6-6.3c3.3,0,5,2.4,5,5.7c0,0.5-0.1,1.1-0.1,1.4h-7.7c0.2,2.1,1.6,3.4,3.6,3.4
		c1,0,1.9-0.3,2.8-0.9l1,1.8c-1.1,0.8-2.6,1.3-4.1,1.3C243.8,36.3,241.2,34,241.2,30z M249.3,28.9c0-1.9-0.8-3-2.5-3
		c-1.4,0-2.6,1.1-2.9,3H249.3z"/>
	<path class="st4" d="M254.4,24h2.3l0.2,1.6h0.1c1.1-1.1,2.3-1.9,4-1.9c2.6,0,3.7,1.7,3.7,4.8V36h-2.8v-7.2c0-2-0.6-2.7-1.9-2.7
		c-1.1,0-1.8,0.5-2.7,1.5V36h-2.8V24z"/>
	<path class="st4" d="M268.6,32v-5.7h-1.7v-2.1l1.9-0.1l0.3-3.3h2.3V24h3.1v2.2h-3.1V32c0,1.4,0.6,2.1,1.7,2.1
		c0.4,0,0.9-0.1,1.3-0.3l0.5,2.1c-0.7,0.2-1.5,0.4-2.5,0.4C269.6,36.3,268.6,34.6,268.6,32z"/>
	<path class="st4" d="M277,24h2.3l0.2,2.1h0.1c0.9-1.6,2.1-2.4,3.4-2.4c0.6,0,1,0.1,1.4,0.2l-0.5,2.5c-0.4-0.1-0.7-0.2-1.2-0.2
		c-1,0-2.1,0.7-2.8,2.5V36H277V24z"/>
	<path class="st4" d="M285.1,30c0-4,2.7-6.3,5.7-6.3c3,0,5.7,2.3,5.7,6.3c0,4-2.7,6.3-5.7,6.3C287.9,36.3,285.1,34,285.1,30z
		 M293.7,30c0-2.4-1.1-4-2.8-4c-1.8,0-2.8,1.6-2.8,4c0,2.4,1.1,4,2.8,4C292.6,34,293.7,32.4,293.7,30z"/>
	<path class="st4" d="M309.3,20h2.8v16h-2.8V20z"/>
	<path class="st4" d="M316,24h2.3l0.2,1.6h0.1c1.1-1.1,2.3-1.9,4-1.9c2.6,0,3.7,1.7,3.7,4.8V36h-2.8v-7.2c0-2-0.6-2.7-1.9-2.7
		c-1.1,0-1.8,0.5-2.7,1.5V36H316V24z"/>
	<path class="st4" d="M330.1,32v-5.7h-1.7v-2.1l1.9-0.1l0.3-3.3h2.3V24h3.1v2.2H333V32c0,1.4,0.6,2.1,1.7,2.1c0.4,0,0.9-0.1,1.3-0.3
		l0.5,2.1c-0.7,0.2-1.5,0.4-2.5,0.4C331.2,36.3,330.1,34.6,330.1,32z"/>
	<path class="st4" d="M337.4,30c0-3.9,2.7-6.3,5.6-6.3c3.3,0,5,2.4,5,5.7c0,0.5-0.1,1.1-0.1,1.4h-7.7c0.2,2.1,1.6,3.4,3.6,3.4
		c1,0,1.9-0.3,2.8-0.9l1,1.8c-1.1,0.8-2.6,1.3-4.1,1.3C340,36.3,337.4,34,337.4,30z M345.5,28.9c0-1.9-0.8-3-2.5-3
		c-1.4,0-2.6,1.1-2.9,3H345.5z"/>
	<path class="st4" d="M350.6,24h2.3l0.2,2.1h0.1c0.9-1.6,2.1-2.4,3.4-2.4c0.6,0,1,0.1,1.4,0.2l-0.5,2.5c-0.4-0.1-0.7-0.2-1.2-0.2
		c-1,0-2.1,0.7-2.8,2.5V36h-2.8V24z"/>
	<path class="st4" d="M358.7,24h2.9l1.9,6.3c0.3,1.2,0.7,2.4,1,3.6h0.1c0.3-1.2,0.7-2.4,1-3.6l1.9-6.3h2.7L366.1,36h-3.3L358.7,24z"
		/>
	<path class="st4" d="M371.4,30c0-3.9,2.7-6.3,5.6-6.3c3.3,0,5,2.4,5,5.7c0,0.5-0.1,1.1-0.1,1.4h-7.7c0.2,2.1,1.6,3.4,3.6,3.4
		c1,0,1.9-0.3,2.8-0.9l1,1.8c-1.1,0.8-2.6,1.3-4.1,1.3C374,36.3,371.4,34,371.4,30z M379.5,28.9c0-1.9-0.8-3-2.5-3
		c-1.4,0-2.6,1.1-2.9,3H379.5z"/>
	<path class="st4" d="M384.6,24h2.3l0.2,1.6h0.1c1.1-1.1,2.3-1.9,4-1.9c2.6,0,3.7,1.7,3.7,4.8V36h-2.8v-7.2c0-2-0.6-2.7-1.9-2.7
		c-1.1,0-1.8,0.5-2.7,1.5V36h-2.8V24z"/>
	<path class="st4" d="M397.6,30c0-4,2.8-6.3,6-6.3c1.5,0,2.6,0.6,3.5,1.4l-1.4,1.8c-0.6-0.6-1.2-0.9-2-0.9c-1.9,0-3.3,1.6-3.3,4
		c0,2.4,1.3,4,3.2,4c0.9,0,1.8-0.5,2.5-1l1.1,1.9c-1.1,1-2.6,1.5-3.9,1.5C400.1,36.3,397.6,34,397.6,30z"/>
	<path class="st4" d="M409.4,20.3c0-1,0.7-1.6,1.7-1.6c1,0,1.7,0.6,1.7,1.6c0,0.9-0.7,1.6-1.7,1.6C410.1,21.9,409.4,21.2,409.4,20.3
		z M409.7,24h2.8V36h-2.8V24z"/>
	<path class="st4" d="M415.3,30c0-4,2.7-6.3,5.7-6.3c3,0,5.7,2.3,5.7,6.3c0,4-2.7,6.3-5.7,6.3C418,36.3,415.3,34,415.3,30z
		 M423.9,30c0-2.4-1.1-4-2.8-4c-1.8,0-2.8,1.6-2.8,4c0,2.4,1.1,4,2.8,4C422.8,34,423.9,32.4,423.9,30z M419.6,20.6l3.6-4.3l1.9,1.9
		L421,22L419.6,20.6z"/>
	<path class="st4" d="M429.6,24h2.3l0.2,1.6h0.1c1.1-1.1,2.3-1.9,4-1.9c2.6,0,3.7,1.7,3.7,4.8V36H437v-7.2c0-2-0.6-2.7-1.9-2.7
		c-1.1,0-1.8,0.5-2.7,1.5V36h-2.8V24z"/>
	<path class="st4" d="M227.9,44.6h3.9l2.6,7.1c0.3,0.9,0.6,2,0.9,3h0.1c0.3-1,0.6-2,0.9-3l2.5-7.1h3.9v16h-3.3v-5.9
		c0-1.6,0.3-3.9,0.5-5.4h-0.1l-1.3,3.8l-2.3,6.1h-2l-2.3-6.1l-1.3-3.8h-0.1c0.2,1.5,0.5,3.9,0.5,5.4v5.9h-3.2V44.6z"/>
	<path class="st4" d="M247.3,56v-7.6h3.6v7.1c0,1.8,0.5,2.3,1.5,2.3c0.9,0,1.5-0.4,2.2-1.3v-8.1h3.6v12.2h-2.9l-0.3-1.7h-0.1
		c-1,1.2-2.2,2-3.8,2C248.5,60.9,247.3,59,247.3,56z"/>
	<path class="st4" d="M262.5,56.8V43.4h3.6v13.6c0,0.8,0.4,1,0.7,1c0.1,0,0.2,0,0.4,0l0.4,2.7c-0.4,0.2-1,0.3-1.8,0.3
		C263.4,60.9,262.5,59.3,262.5,56.8z"/>
	<path class="st4" d="M271.2,56.1v-4.9h-1.7v-2.7l1.9-0.1l0.4-3.2h3v3.2h2.9v2.8h-2.9v4.9c0,1.4,0.6,1.9,1.6,1.9
		c0.4,0,0.8-0.1,1.2-0.2l0.6,2.6c-0.6,0.2-1.5,0.4-2.7,0.4C272.4,60.9,271.2,59,271.2,56.1z"/>
	<path class="st4" d="M280.9,44.7c0-1.1,0.9-1.9,2.1-1.9c1.2,0,2.1,0.8,2.1,1.9c0,1.1-0.9,1.9-2.1,1.9
		C281.8,46.6,280.9,45.8,280.9,44.7z M281.2,48.4h3.6v12.2h-3.6V48.4z"/>
	<path class="st4" d="M288.4,62.7c0-1,0.6-1.8,1.7-2.5v-0.1c-0.6-0.4-1.1-1.1-1.1-2.1c0-0.9,0.6-1.7,1.4-2.3v-0.1
		c-0.9-0.6-1.6-1.7-1.6-3.2c0-2.9,2.4-4.4,5-4.4c0.7,0,1.3,0.1,1.9,0.3h4.5V51h-2c0.2,0.4,0.4,1,0.4,1.6c0,2.8-2.1,4.1-4.8,4.1
		c-0.4,0-0.9-0.1-1.5-0.2c-0.3,0.3-0.4,0.5-0.4,0.9c0,0.6,0.5,0.9,1.8,0.9h2c3,0,4.6,0.9,4.6,3.1c0,2.5-2.6,4.4-6.8,4.4
		C290.6,65.7,288.4,64.8,288.4,62.7z M296.8,62c0-0.8-0.7-0.9-1.9-0.9h-1.3c-0.8,0-1.3,0-1.7-0.2c-0.5,0.4-0.7,0.8-0.7,1.2
		c0,0.9,1.1,1.4,2.7,1.4C295.6,63.5,296.8,62.8,296.8,62z M295.4,52.5c0-1.3-0.7-2-1.7-2c-1,0-1.7,0.7-1.7,2c0,1.3,0.7,2,1.7,2
		S295.4,53.8,295.4,52.5z"/>
	<path class="st4" d="M302.2,54.5c0-3.9,2.8-6.4,5.7-6.4c3.5,0,5.2,2.5,5.2,5.8c0,0.6-0.1,1.3-0.1,1.6h-7.3c0.3,1.8,1.5,2.6,3.2,2.6
		c0.9,0,1.7-0.3,2.6-0.8l1.2,2.2c-1.2,0.9-2.9,1.4-4.3,1.4C304.9,60.9,302.2,58.5,302.2,54.5z M310,53.2c0-1.3-0.6-2.3-2-2.3
		c-1.1,0-2.1,0.8-2.4,2.3H310z"/>
	<path class="st4" d="M316.7,48.4h2.9l0.3,1.5h0.1c1-1,2.3-1.8,3.9-1.8c2.6,0,3.8,1.9,3.8,4.9v7.6h-3.6v-7.1c0-1.8-0.5-2.3-1.5-2.3
		c-0.9,0-1.5,0.4-2.3,1.2v8.2h-3.6V48.4z"/>
	<path class="st4" d="M331.2,54.5c0-3.9,2.8-6.4,5.7-6.4c3.5,0,5.2,2.5,5.2,5.8c0,0.6-0.1,1.3-0.1,1.6h-7.3c0.3,1.8,1.5,2.6,3.2,2.6
		c0.9,0,1.7-0.3,2.6-0.8l1.2,2.2c-1.2,0.9-2.9,1.4-4.3,1.4C333.9,60.9,331.2,58.5,331.2,54.5z M339,53.2c0-1.3-0.6-2.3-2-2.3
		c-1.1,0-2.1,0.8-2.4,2.3H339z"/>
	<path class="st4" d="M345.7,48.4h2.9l0.3,2.1h0.1c0.9-1.6,2.2-2.4,3.5-2.4c0.7,0,1.1,0.1,1.5,0.2l-0.6,3.1
		c-0.4-0.1-0.8-0.2-1.3-0.2c-0.9,0-2,0.6-2.7,2.3v7.1h-3.6V48.4z"/>
	<path class="st4" d="M355.4,57.2c0-2.6,2-4,6.9-4.5c-0.1-1.1-0.6-1.8-1.9-1.8c-1,0-2,0.4-3.2,1.1l-1.3-2.4c1.5-0.9,3.3-1.6,5.2-1.6
		c3.1,0,4.8,1.8,4.8,5.5v7h-2.9l-0.3-1.2h-0.1c-1,0.9-2.2,1.5-3.5,1.5C356.8,60.9,355.4,59.2,355.4,57.2z M362.2,57v-2.1
		c-2.6,0.3-3.4,1.1-3.4,2c0,0.8,0.5,1.2,1.4,1.2C361,58.1,361.6,57.7,362.2,57z"/>
	<path class="st4" d="M369.3,54.5c0-4,3-6.4,6.3-6.4c1.5,0,2.6,0.5,3.6,1.3l-1.7,2.3c-0.6-0.5-1.1-0.7-1.7-0.7
		c-1.7,0-2.8,1.4-2.8,3.5c0,2.1,1.2,3.5,2.7,3.5c0.8,0,1.6-0.4,2.2-0.9l1.4,2.4c-1.2,1-2.7,1.4-4,1.4
		C371.9,60.9,369.3,58.5,369.3,54.5z"/>
	<path class="st4" d="M382.3,44.7c0-1.1,0.9-1.9,2.1-1.9c1.2,0,2.1,0.8,2.1,1.9c0,1.1-0.9,1.9-2.1,1.9
		C383.2,46.6,382.3,45.8,382.3,44.7z M382.6,48.4h3.6v12.2h-3.6V48.4z"/>
	<path class="st4" d="M389.8,54.5c0-4,2.8-6.4,5.9-6.4c3.1,0,5.9,2.3,5.9,6.4c0,4-2.8,6.4-5.9,6.4C392.6,60.9,389.8,58.5,389.8,54.5
		z M397.9,54.5c0-2.1-0.7-3.5-2.2-3.5c-1.5,0-2.2,1.4-2.2,3.5c0,2.1,0.7,3.5,2.2,3.5C397.2,58,397.9,56.6,397.9,54.5z"/>
	<path class="st4" d="M405.2,48.4h2.9l0.3,1.5h0.1c1-1,2.3-1.8,3.9-1.8c2.6,0,3.8,1.9,3.8,4.9v7.6h-3.6v-7.1c0-1.8-0.5-2.3-1.5-2.3
		c-0.9,0-1.5,0.4-2.3,1.2v8.2h-3.6V48.4z"/>
	<path class="st4" d="M419.8,57.2c0-2.6,2-4,6.9-4.5c-0.1-1.1-0.6-1.8-1.9-1.8c-1,0-2,0.4-3.2,1.1l-1.3-2.4c1.5-0.9,3.3-1.6,5.2-1.6
		c3.1,0,4.8,1.8,4.8,5.5v7h-2.9l-0.3-1.2H427c-1,0.9-2.2,1.5-3.5,1.5C421.2,60.9,419.8,59.2,419.8,57.2z M426.7,57v-2.1
		c-2.6,0.3-3.4,1.1-3.4,2c0,0.8,0.5,1.2,1.4,1.2C425.5,58.1,426,57.7,426.7,57z"/>
	<path class="st4" d="M434.5,56.8V43.4h3.6v13.6c0,0.8,0.4,1,0.7,1c0.1,0,0.2,0,0.4,0l0.4,2.7c-0.4,0.2-1,0.3-1.8,0.3
		C435.3,60.9,434.5,59.3,434.5,56.8z"/>
</g>
</svg>
