<?xml version="1.0" encoding="utf-8"?>
<!-- Generator: Adobe Illustrator 23.1.1, SVG Export Plug-In . SVG Version: 6.00 Build 0)  -->
<svg version="1.1" id="Capa_1" xmlns="http://www.w3.org/2000/svg" xmlns:xlink="http://www.w3.org/1999/xlink" x="0px" y="0px"
	 viewBox="0 0 212.7 145.4" style="enable-background:new 0 0 212.7 145.4;" xml:space="preserve">
<style type="text/css">
	.st0{fill:#FFFFFF;}
</style>
<g>
	<g>
		<path class="st0" d="M0,107.8c0-5.3,3.3-8.4,7.4-8.4c2,0,3.6,1,4.6,2l-1.5,1.8c-0.8-0.8-1.8-1.4-3-1.4c-2.6,0-4.5,2.2-4.5,5.8
			c0,3.7,1.7,5.9,4.4,5.9c1.4,0,2.5-0.7,3.4-1.6l1.5,1.8c-1.3,1.5-3,2.3-5.1,2.3C3.2,116,0,113.1,0,107.8z"/>
		<path class="st0" d="M14,109.7c0-3.9,2.7-6.3,5.6-6.3c3.3,0,5,2.4,5,5.7c0,0.5-0.1,1.1-0.1,1.4h-7.7c0.2,2.1,1.6,3.4,3.6,3.4
			c1,0,1.9-0.3,2.8-0.9l1,1.8c-1.1,0.8-2.6,1.3-4.1,1.3C16.6,116,14,113.7,14,109.7z M22.1,108.6c0-1.9-0.8-3-2.5-3
			c-1.4,0-2.6,1.1-2.9,3H22.1z"/>
		<path class="st0" d="M27.2,103.7h2.3l0.2,1.6h0.1c1.1-1.1,2.3-1.9,4-1.9c2.6,0,3.7,1.7,3.7,4.8v7.6h-2.8v-7.2c0-2-0.6-2.7-1.9-2.7
			c-1.1,0-1.8,0.5-2.7,1.5v8.4h-2.8V103.7z"/>
		<path class="st0" d="M41.4,111.7v-5.7h-1.7v-2.1l1.9-0.1l0.3-3.3h2.3v3.3h3.1v2.2h-3.1v5.7c0,1.4,0.6,2.1,1.7,2.1
			c0.4,0,0.9-0.1,1.3-0.3l0.5,2.1c-0.7,0.2-1.5,0.4-2.5,0.4C42.4,116,41.4,114.3,41.4,111.7z"/>
		<path class="st0" d="M49.8,103.7h2.3l0.2,2.1h0.1c0.9-1.6,2.1-2.4,3.4-2.4c0.6,0,1,0.1,1.4,0.2l-0.5,2.5c-0.4-0.1-0.7-0.2-1.2-0.2
			c-1,0-2.1,0.7-2.8,2.5v7.4h-2.8V103.7z"/>
		<path class="st0" d="M57.9,109.7c0-4,2.7-6.3,5.7-6.3c3,0,5.7,2.3,5.7,6.3c0,4-2.7,6.3-5.7,6.3C60.7,116,57.9,113.7,57.9,109.7z
			 M66.5,109.7c0-2.4-1.1-4-2.8-4c-1.8,0-2.8,1.6-2.8,4c0,2.4,1.1,4,2.8,4C65.4,113.7,66.5,112.1,66.5,109.7z"/>
		<path class="st0" d="M82.1,99.7h2.8v16h-2.8V99.7z"/>
		<path class="st0" d="M88.8,103.7h2.3l0.2,1.6h0.1c1.1-1.1,2.3-1.9,4-1.9c2.6,0,3.7,1.7,3.7,4.8v7.6h-2.8v-7.2c0-2-0.6-2.7-1.9-2.7
			c-1.1,0-1.8,0.5-2.7,1.5v8.4h-2.8V103.7z"/>
		<path class="st0" d="M102.9,111.7v-5.7h-1.7v-2.1l1.9-0.1l0.3-3.3h2.3v3.3h3.1v2.2h-3.1v5.7c0,1.4,0.6,2.1,1.7,2.1
			c0.4,0,0.9-0.1,1.3-0.3l0.5,2.1c-0.7,0.2-1.5,0.4-2.5,0.4C104,116,102.9,114.3,102.9,111.7z"/>
		<path class="st0" d="M110.2,109.7c0-3.9,2.7-6.3,5.6-6.3c3.3,0,5,2.4,5,5.7c0,0.5-0.1,1.1-0.1,1.4h-7.7c0.2,2.1,1.6,3.4,3.6,3.4
			c1,0,1.9-0.3,2.8-0.9l1,1.8c-1.1,0.8-2.6,1.3-4.1,1.3C112.8,116,110.2,113.7,110.2,109.7z M118.3,108.6c0-1.9-0.8-3-2.5-3
			c-1.4,0-2.6,1.1-2.9,3H118.3z"/>
		<path class="st0" d="M123.4,103.7h2.3l0.2,2.1h0.1c0.9-1.6,2.1-2.4,3.4-2.4c0.6,0,1,0.1,1.4,0.2l-0.5,2.5
			c-0.4-0.1-0.7-0.2-1.2-0.2c-1,0-2.1,0.7-2.8,2.5v7.4h-2.8V103.7z"/>
		<path class="st0" d="M131.5,103.7h2.9l1.9,6.3c0.3,1.2,0.7,2.4,1,3.6h0.1c0.3-1.2,0.7-2.4,1-3.6l1.9-6.3h2.7l-4.1,12.1h-3.3
			L131.5,103.7z"/>
		<path class="st0" d="M144.2,109.7c0-3.9,2.7-6.3,5.6-6.3c3.3,0,5,2.4,5,5.7c0,0.5-0.1,1.1-0.1,1.4h-7.7c0.2,2.1,1.6,3.4,3.6,3.4
			c1,0,1.9-0.3,2.8-0.9l1,1.8c-1.1,0.8-2.6,1.3-4.1,1.3C146.8,116,144.2,113.7,144.2,109.7z M152.3,108.6c0-1.9-0.8-3-2.5-3
			c-1.4,0-2.6,1.1-2.9,3H152.3z"/>
		<path class="st0" d="M157.4,103.7h2.3l0.2,1.6h0.1c1.1-1.1,2.3-1.9,4-1.9c2.6,0,3.7,1.7,3.7,4.8v7.6h-2.8v-7.2
			c0-2-0.6-2.7-1.9-2.7c-1.1,0-1.8,0.5-2.7,1.5v8.4h-2.8V103.7z"/>
		<path class="st0" d="M170.3,109.7c0-4,2.8-6.3,6-6.3c1.5,0,2.6,0.6,3.5,1.4l-1.4,1.8c-0.6-0.6-1.2-0.9-2-0.9c-1.9,0-3.3,1.6-3.3,4
			c0,2.4,1.3,4,3.2,4c0.9,0,1.8-0.5,2.5-1l1.1,1.9c-1.1,1-2.6,1.5-3.9,1.5C172.9,116,170.3,113.7,170.3,109.7z"/>
		<path class="st0" d="M182.2,100c0-1,0.7-1.6,1.7-1.6c1,0,1.7,0.6,1.7,1.6c0,0.9-0.7,1.6-1.7,1.6
			C182.9,101.6,182.2,100.9,182.2,100z M182.5,103.7h2.8v12.1h-2.8V103.7z"/>
		<path class="st0" d="M188.1,109.7c0-4,2.7-6.3,5.7-6.3c3,0,5.7,2.3,5.7,6.3c0,4-2.7,6.3-5.7,6.3
			C190.8,116,188.1,113.7,188.1,109.7z M196.7,109.7c0-2.4-1.1-4-2.8-4c-1.8,0-2.8,1.6-2.8,4c0,2.4,1.1,4,2.8,4
			C195.6,113.7,196.7,112.1,196.7,109.7z M192.4,100.3L196,96l1.9,1.9l-4.2,3.8L192.4,100.3z"/>
		<path class="st0" d="M202.4,103.7h2.3l0.2,1.6h0.1c1.1-1.1,2.3-1.9,4-1.9c2.6,0,3.7,1.7,3.7,4.8v7.6h-2.8v-7.2
			c0-2-0.6-2.7-1.9-2.7c-1.1,0-1.8,0.5-2.7,1.5v8.4h-2.8V103.7z"/>
		<path class="st0" d="M0.7,124.3h3.9l2.6,7.1c0.3,0.9,0.6,2,0.9,3h0.1c0.3-1,0.6-2,0.9-3l2.5-7.1h3.9v16h-3.3v-5.9
			c0-1.6,0.3-3.9,0.5-5.4h-0.1l-1.3,3.8l-2.3,6.1h-2l-2.3-6.1L3.6,129H3.5c0.2,1.5,0.5,3.9,0.5,5.4v5.9H0.7V124.3z"/>
		<path class="st0" d="M20.1,135.7v-7.6h3.6v7.1c0,1.8,0.5,2.3,1.5,2.3c0.9,0,1.5-0.4,2.2-1.3v-8.1H31v12.2h-2.9l-0.3-1.7h-0.1
			c-1,1.2-2.2,2-3.8,2C21.3,140.6,20.1,138.7,20.1,135.7z"/>
		<path class="st0" d="M35.3,136.5v-13.4h3.6v13.6c0,0.8,0.4,1,0.7,1c0.1,0,0.2,0,0.4,0l0.4,2.7c-0.4,0.2-1,0.3-1.8,0.3
			C36.2,140.6,35.3,138.9,35.3,136.5z"/>
		<path class="st0" d="M44,135.8v-4.9h-1.7v-2.7l1.9-0.1l0.4-3.2h3v3.2h2.9v2.8h-2.9v4.9c0,1.4,0.6,1.9,1.6,1.9
			c0.4,0,0.8-0.1,1.2-0.2l0.6,2.6c-0.6,0.2-1.5,0.4-2.7,0.4C45.2,140.6,44,138.7,44,135.8z"/>
		<path class="st0" d="M53.7,124.4c0-1.1,0.9-1.9,2.1-1.9s2.1,0.8,2.1,1.9c0,1.1-0.9,1.9-2.1,1.9S53.7,125.5,53.7,124.4z M54,128.1
			h3.6v12.2H54V128.1z"/>
		<path class="st0" d="M61.2,142.4c0-1,0.6-1.8,1.7-2.5v-0.1c-0.6-0.4-1.1-1.1-1.1-2.1c0-0.9,0.6-1.7,1.4-2.3v-0.1
			c-0.9-0.6-1.6-1.7-1.6-3.2c0-2.9,2.4-4.4,5-4.4c0.7,0,1.3,0.1,1.9,0.3h4.5v2.6h-2c0.2,0.4,0.4,1,0.4,1.6c0,2.8-2.1,4.1-4.8,4.1
			c-0.4,0-0.9-0.1-1.5-0.2c-0.3,0.3-0.4,0.5-0.4,0.9c0,0.6,0.5,0.9,1.8,0.9h2c3,0,4.6,0.9,4.6,3.1c0,2.5-2.6,4.4-6.8,4.4
			C63.4,145.4,61.2,144.5,61.2,142.4z M69.6,141.7c0-0.8-0.7-0.9-1.9-0.9h-1.3c-0.8,0-1.3,0-1.7-0.2c-0.5,0.4-0.7,0.8-0.7,1.2
			c0,0.9,1.1,1.4,2.7,1.4C68.4,143.2,69.6,142.5,69.6,141.7z M68.2,132.2c0-1.3-0.7-2-1.7-2c-1,0-1.7,0.7-1.7,2c0,1.3,0.7,2,1.7,2
			C67.5,134.2,68.2,133.5,68.2,132.2z"/>
		<path class="st0" d="M75,134.2c0-3.9,2.8-6.4,5.7-6.4c3.5,0,5.2,2.5,5.2,5.8c0,0.6-0.1,1.3-0.1,1.6h-7.3c0.3,1.8,1.5,2.6,3.2,2.6
			c0.9,0,1.7-0.3,2.6-0.8l1.2,2.2c-1.2,0.9-2.9,1.4-4.3,1.4C77.7,140.6,75,138.2,75,134.2z M82.8,132.9c0-1.3-0.6-2.3-2-2.3
			c-1.1,0-2.1,0.8-2.4,2.3H82.8z"/>
		<path class="st0" d="M89.5,128.1h2.9l0.3,1.5h0.1c1-1,2.3-1.8,3.9-1.8c2.6,0,3.8,1.9,3.8,4.9v7.6h-3.6v-7.1c0-1.8-0.5-2.3-1.5-2.3
			c-0.9,0-1.5,0.4-2.3,1.2v8.2h-3.6V128.1z"/>
		<path class="st0" d="M104,134.2c0-3.9,2.8-6.4,5.7-6.4c3.5,0,5.2,2.5,5.2,5.8c0,0.6-0.1,1.3-0.1,1.6h-7.3c0.3,1.8,1.5,2.6,3.2,2.6
			c0.9,0,1.7-0.3,2.6-0.8l1.2,2.2c-1.2,0.9-2.9,1.4-4.3,1.4C106.7,140.6,104,138.2,104,134.2z M111.8,132.9c0-1.3-0.6-2.3-2-2.3
			c-1.1,0-2.1,0.8-2.4,2.3H111.8z"/>
		<path class="st0" d="M118.5,128.1h2.9l0.3,2.1h0.1c0.9-1.6,2.2-2.4,3.5-2.4c0.7,0,1.1,0.1,1.5,0.2l-0.6,3.1
			c-0.4-0.1-0.8-0.2-1.3-0.2c-0.9,0-2,0.6-2.7,2.3v7.1h-3.6V128.1z"/>
		<path class="st0" d="M128.2,136.9c0-2.6,2-4,6.9-4.5c-0.1-1.1-0.6-1.8-1.9-1.8c-1,0-2,0.4-3.2,1.1l-1.3-2.4
			c1.5-0.9,3.3-1.6,5.2-1.6c3.1,0,4.8,1.8,4.8,5.5v7h-2.9l-0.3-1.2h-0.1c-1,0.9-2.2,1.5-3.5,1.5
			C129.6,140.6,128.2,138.9,128.2,136.9z M135,136.7v-2.1c-2.6,0.3-3.4,1.1-3.4,2c0,0.8,0.5,1.2,1.4,1.2
			C133.8,137.8,134.4,137.4,135,136.7z"/>
		<path class="st0" d="M142.1,134.2c0-4,3-6.4,6.3-6.4c1.5,0,2.6,0.5,3.6,1.3l-1.7,2.3c-0.6-0.5-1.1-0.7-1.7-0.7
			c-1.7,0-2.8,1.4-2.8,3.5c0,2.1,1.2,3.5,2.7,3.5c0.8,0,1.6-0.4,2.2-0.9l1.4,2.4c-1.2,1-2.7,1.4-4,1.4
			C144.7,140.6,142.1,138.2,142.1,134.2z"/>
		<path class="st0" d="M155.1,124.4c0-1.1,0.9-1.9,2.1-1.9s2.1,0.8,2.1,1.9c0,1.1-0.9,1.9-2.1,1.9S155.1,125.5,155.1,124.4z
			 M155.4,128.1h3.6v12.2h-3.6V128.1z"/>
		<path class="st0" d="M162.6,134.2c0-4,2.8-6.4,5.9-6.4c3.1,0,5.9,2.3,5.9,6.4c0,4-2.8,6.4-5.9,6.4
			C165.4,140.6,162.6,138.2,162.6,134.2z M170.7,134.2c0-2.1-0.7-3.5-2.2-3.5c-1.5,0-2.2,1.4-2.2,3.5c0,2.1,0.7,3.5,2.2,3.5
			C170,137.7,170.7,136.3,170.7,134.2z"/>
		<path class="st0" d="M178,128.1h2.9l0.3,1.5h0.1c1-1,2.3-1.8,3.9-1.8c2.6,0,3.8,1.9,3.8,4.9v7.6h-3.6v-7.1c0-1.8-0.5-2.3-1.5-2.3
			c-0.9,0-1.5,0.4-2.3,1.2v8.2H178V128.1z"/>
		<path class="st0" d="M192.6,136.9c0-2.6,2-4,6.9-4.5c-0.1-1.1-0.6-1.8-1.9-1.8c-1,0-2,0.4-3.2,1.1l-1.3-2.4
			c1.5-0.9,3.3-1.6,5.2-1.6c3.1,0,4.8,1.8,4.8,5.5v7h-2.9l-0.3-1.2h-0.1c-1,0.9-2.2,1.5-3.5,1.5C194,140.6,192.6,138.9,192.6,136.9z
			 M199.5,136.7v-2.1c-2.6,0.3-3.4,1.1-3.4,2c0,0.8,0.5,1.2,1.4,1.2C198.3,137.8,198.8,137.4,199.5,136.7z"/>
		<path class="st0" d="M207.2,136.5v-13.4h3.6v13.6c0,0.8,0.4,1,0.7,1c0.1,0,0.2,0,0.4,0l0.4,2.7c-0.4,0.2-1,0.3-1.8,0.3
			C208.1,140.6,207.2,138.9,207.2,136.5z"/>
	</g>
	<g>
		<path class="st0" d="M107.7,17.2H90.5c-2.3,0-4.2,1.9-4.2,4.2v14.3c0,2.3,1.9,4.2,4.2,4.2h17.1c2.3,0,4.2-1.9,4.2-4.2V21.4
			C111.9,19,110,17.2,107.7,17.2z"/>
		<path class="st0" d="M107.7,0H90.5c-2.3,0-4.2,1.9-4.2,4.2v5.7c0,2.3,1.9,4.2,4.2,4.2h17.1c2.3,0,4.2-1.9,4.2-4.2V4.2
			C111.9,1.9,110,0,107.7,0z"/>
		<path class="st0" d="M107.7,42.9H90.5c-2.3,0-4.2,1.9-4.2,4.2v31.4c0,2.3,1.9,4.2,4.2,4.2h17.1c2.3,0,4.2-1.9,4.2-4.2V47.1
			C111.9,44.8,110,42.9,107.7,42.9z"/>
		<polygon class="st0" points="135.9,76.8 135.9,76.8 135.9,76.8 		"/>
		<polygon class="st0" points="135.9,76.8 135.9,76.8 135.9,76.8 		"/>
		<g>
			<path class="st0" d="M209.9,6.1c-0.8,0-1.5,0.3-2,0.9l-6,6l-24.7,24.5c-1,1-1.6,2.4-1.6,3.9c0,1.1,0.3,2.1,0.9,3
				c0.2,0.3,0.4,0.6,0.7,0.9l30.7,30.5c0.5,0.6,1.3,0.9,2,0.9c1.5,0,2.8-1.2,2.8-2.8v-65C212.7,7.3,211.5,6.1,209.9,6.1z"/>
			<path class="st0" d="M199.8,71.9l-24.5-24.7c-1-1-2.4-1.6-3.9-1.6c-1.1,0-2.1,0.3-3,0.9c-0.3,0.2-0.6,0.4-0.9,0.7l-30.5,30.7
				c-0.6,0.5-0.9,1.3-0.9,2c0,1.5,1.2,2.8,2.8,2.8h65c1.5,0,2.8-1.2,2.8-2.8c0-0.8-0.3-1.5-0.9-2L199.8,71.9z"/>
			<path class="st0" d="M166.2,44.4c0.6-0.9,0.9-2,0.9-3c0-1.5-0.6-2.9-1.6-3.9L134.8,7c-0.5-0.6-1.3-0.9-2-0.9
				c-1.5,0-2.8,1.2-2.8,2.8v65c0,1.5,1.2,2.8,2.8,2.8c0.8,0,1.5-0.3,2-0.9l1.7-1.7l29-28.8C165.7,45,166,44.7,166.2,44.4z"/>
		</g>
		<polygon class="st0" points="206.8,76.8 206.8,76.8 206.8,76.8 		"/>
		<polygon class="st0" points="206.8,76.8 206.8,76.8 206.8,76.8 		"/>
		<g>
			<path class="st0" d="M37.5,35.3c1,1,2.4,1.6,3.9,1.6c1.5,0,2.8-0.6,3.9-1.6l22.2-22.2c0.5-0.5,0.8-1.2,0.8-1.9
				c0-0.8-0.4-1.6-1-2.1l-0.3-0.3C59.5,3,50.7,0,41.4,0c-9.5,0-18.5,3.1-25.9,9.1c-0.6,0.5-1,1.3-1,2.1c0,0.8,0.4,1.5,0.7,1.8
				L37.5,35.3z"/>
			<path class="st0" d="M67.3,69.4l-22-22c-1.1-1-2.4-1.6-3.9-1.6c-1.5,0-2.9,0.6-3.9,1.6L15.1,69.7c-0.3,0.3-0.7,0.9-0.7,1.8
				c0,0.8,0.4,1.6,1,2.1c7.4,5.9,16.3,9.1,25.9,9.1c9.4,0,18.2-3.1,25.6-8.9l0.2-0.2c0.7-0.6,1-1.3,1-2.1c0-0.7-0.3-1.4-0.8-1.9
				L67.3,69.4z"/>
			<path class="st0" d="M35.3,37.4L13.1,15.3c-0.5-0.5-1.2-0.8-1.9-0.8c-0.8,0-1.6,0.4-2.1,1l-0.3,0.3C3,23.2,0,32,0,41.4
				c0,9.5,3.1,18.5,9.1,25.9c0.5,0.6,1.3,1,2.1,1c0.8,0,1.5-0.4,1.8-0.7l22.3-22.3c1-1,1.6-2.4,1.6-3.9
				C36.9,39.9,36.3,38.5,35.3,37.4z"/>
		</g>
	</g>
</g>
</svg>
