<?xml version="1.0" encoding="utf-8"?>
<!-- Generator: Adobe Illustrator 23.1.1, SVG Export Plug-In . SVG Version: 6.00 Build 0)  -->
<svg version="1.1" id="Capa_1" xmlns="http://www.w3.org/2000/svg" xmlns:xlink="http://www.w3.org/1999/xlink" x="0px" y="0px"
	 viewBox="0 0 114.5 26.8" style="enable-background:new 0 0 114.5 26.8;" xml:space="preserve">
<style type="text/css">
	.st0{enable-background:new    ;}
</style>
<g class="st0">
	<path d="M0,26.5V0.3h3.8v23.4h6.6v2.8H0z"/>
	<path d="M18.8,26.8c-1.3,0-2.4-0.2-3.4-0.6s-1.7-1-2.2-1.8s-1-1.7-1.2-2.7c-0.3-1-0.4-2.2-0.4-3.6V8.6C11.6,7.2,11.7,6,12,5
		s0.7-1.9,1.2-2.7c0.6-0.8,1.3-1.3,2.2-1.7S17.5,0,18.8,0c2.6,0,4.4,0.7,5.5,2.2s1.7,3.6,1.7,6.4v9.5c0,1.4-0.1,2.6-0.4,3.6
		c-0.3,1-0.7,1.9-1.2,2.7c-0.6,0.8-1.3,1.4-2.2,1.8C21.3,26.6,20.1,26.8,18.8,26.8z M16.1,22.5c0.5,0.8,1.4,1.2,2.7,1.2
		s2.2-0.4,2.7-1.2s0.8-2,0.8-3.5V7.6c0-1.5-0.2-2.7-0.7-3.4s-1.4-1.1-2.7-1.1s-2.2,0.4-2.7,1.1s-0.7,1.9-0.7,3.4V19
		C15.3,20.6,15.6,21.7,16.1,22.5z"/>
	<path d="M36.4,26.8c-1.2,0-2.2-0.2-3.1-0.5s-1.6-0.8-2.2-1.4s-1-1.3-1.3-2.2s-0.6-1.9-0.7-2.9s-0.2-2.2-0.2-3.5V9.6
		c0-6.4,2.5-9.6,7.6-9.6c1.2,0,2.3,0.2,3.2,0.5c0.9,0.4,1.6,0.9,2.2,1.6s1,1.5,1.3,2.5c0.3,0.9,0.4,2,0.5,3.3c0,0.2,0,0.4,0,0.8
		h-3.8V7.9c0-0.6,0-1.1-0.1-1.6c-0.1-0.4-0.2-0.9-0.3-1.3s-0.3-0.8-0.6-1s-0.6-0.5-1-0.6c-0.4-0.2-0.9-0.2-1.4-0.2
		c-0.8,0-1.4,0.1-1.9,0.4c-0.5,0.3-0.9,0.7-1.2,1.2c-0.3,0.5-0.5,1.1-0.6,1.8c-0.1,0.6-0.2,1.4-0.2,2.2v8.4c0,0.6,0,1.2,0.1,1.7
		c0,0.5,0.1,1,0.2,1.5s0.2,1,0.4,1.4s0.4,0.7,0.7,1c0.3,0.3,0.6,0.5,1,0.7c0.4,0.2,0.9,0.2,1.4,0.2c0.6,0,1.2-0.1,1.6-0.4
		s0.8-0.6,1.1-0.9s0.5-0.9,0.6-1.5s0.3-1.2,0.3-1.8s0.1-1.3,0.1-2v-0.9h-3.8v-2.8h7.5v13.1h-2.8l-0.9-2.8
		C39.4,25.8,38.1,26.8,36.4,26.8z"/>
	<path d="M53.7,26.8c-1.3,0-2.4-0.2-3.4-0.6s-1.7-1-2.2-1.8s-1-1.7-1.2-2.7c-0.3-1-0.4-2.2-0.4-3.6V8.6c0-1.4,0.1-2.6,0.4-3.6
		S47.5,3,48,2.3c0.6-0.8,1.3-1.3,2.2-1.7S52.4,0,53.7,0c2.6,0,4.4,0.7,5.5,2.2s1.7,3.6,1.7,6.4v9.5c0,1.4-0.1,2.6-0.4,3.6
		c-0.3,1-0.7,1.9-1.2,2.7c-0.6,0.8-1.3,1.4-2.2,1.8C56.1,26.6,55,26.8,53.7,26.8z M50.9,22.5c0.5,0.8,1.4,1.2,2.7,1.2
		s2.2-0.4,2.7-1.2s0.8-2,0.8-3.5V7.6c0-1.5-0.2-2.7-0.7-3.4S55,3.1,53.7,3.1s-2.2,0.4-2.7,1.1s-0.7,1.9-0.7,3.4V19
		C50.2,20.6,50.4,21.7,50.9,22.5z"/>
	<path d="M67,26.5V3.6h-4.7V0.3h13.1v3.3h-4.7v22.9H67z"/>
	<path d="M77.5,26.5V0.3h3.8v26.2H77.5z"/>
	<path d="M85.2,26.5V0.3h6.6c4.4,0,6.6,2.5,6.6,7.5c0,2.1-0.6,3.8-1.7,4.9c-1.1,1.1-2.8,1.7-4.9,1.7H89v12.2H85.2z M89,11.5h0.9
		c0.8,0,1.5,0,2.1-0.1s1-0.3,1.4-0.5s0.7-0.7,0.9-1.2s0.3-1.1,0.3-1.9c0-0.9-0.1-1.7-0.2-2.3S94,4.4,93.6,4.1s-0.8-0.6-1.4-0.8
		s-1.3-0.2-2.3-0.2H89V11.5z"/>
	<path d="M107.2,26.8c-1.3,0-2.4-0.2-3.4-0.6s-1.7-1-2.2-1.8s-1-1.7-1.2-2.7c-0.3-1-0.4-2.2-0.4-3.6V8.6c0-1.4,0.1-2.6,0.4-3.6
		s0.7-1.9,1.2-2.7c0.6-0.8,1.3-1.3,2.2-1.7s2.1-0.6,3.4-0.6c2.6,0,4.4,0.7,5.5,2.2s1.7,3.6,1.7,6.4v9.5c0,1.4-0.1,2.6-0.4,3.6
		c-0.3,1-0.7,1.9-1.2,2.7c-0.6,0.8-1.3,1.4-2.2,1.8C109.7,26.6,108.5,26.8,107.2,26.8z M104.5,22.5c0.5,0.8,1.4,1.2,2.7,1.2
		s2.2-0.4,2.7-1.2s0.8-2,0.8-3.5V7.6c0-1.5-0.2-2.7-0.7-3.4s-1.4-1.1-2.7-1.1s-2.2,0.4-2.7,1.1s-0.7,1.9-0.7,3.4V19
		C103.8,20.6,104,21.7,104.5,22.5z"/>
</g>
</svg>
