<?xml version="1.0" encoding="utf-8"?>
<!-- Generator: Adobe Illustrator 23.1.1, SVG Export Plug-In . SVG Version: 6.00 Build 0)  -->
<svg version="1.1" id="Capa_1" xmlns="http://www.w3.org/2000/svg" xmlns:xlink="http://www.w3.org/1999/xlink" x="0px" y="0px"
	 viewBox="0 0 171.2 129.1" style="enable-background:new 0 0 171.2 129.1;" xml:space="preserve">
<style type="text/css">
	.st0{fill:#FFFFFF;}
</style>
<g>
	<g>
		<g>
			<g>
				<path class="st0" d="M98.6,74.7h0.1l-2.7,2.6c-0.6,0.5-0.9,1.2-0.9,2c0,1.5,1.2,2.8,2.8,2.8h64.5c1.5,0,2.8-1.2,2.8-2.8
					c0-0.8-0.3-1.5-0.9-2l-2.7-2.6h0.2l-3.7-3.7l0.1-0.1l-24.1-24.1c-1-1-2.4-1.6-3.9-1.6c-1.5,0-2.8,0.6-3.9,1.6l-24.1,24.1
					l0.1,0.1L98.6,74.7z"/>
			</g>
		</g>
	</g>
	<g>
		<g>
			<path class="st0" d="M91.9,6c-1.5,0-2.8,1.2-2.8,2.8v64.5c0,1.5,1.2,2.8,2.8,2.8c0.8,0,1.5-0.3,2-0.9l2.6-2.7v0.2l3.7-3.7
				l0.1,0.1l24.1-24.1c1-1,1.6-2.4,1.6-3.9c0-1.5-0.6-2.8-1.6-3.9l-24.1-24.1l-0.1,0.1l-3.7-3.7v0.1l-2.6-2.7
				C93.4,6.3,92.7,6,91.9,6z"/>
		</g>
	</g>
	<g>
		<g>
			<path class="st0" d="M163.9,72.5l2.6,2.7c0.5,0.6,1.2,0.9,2,0.9c1.5,0,2.8-1.2,2.8-2.8V8.8c0-1.5-1.2-2.8-2.8-2.8
				c-0.8,0-1.5,0.3-2,0.9l-2.6,2.7V9.5l-3.7,3.7l-0.1-0.1L136,37.2c-1,1-1.6,2.4-1.6,3.9c0,1.5,0.6,2.8,1.6,3.9L160.1,69l0.1-0.1
				l3.7,3.7V72.5z"/>
		</g>
	</g>
	<g>
		<g>
			<g>
				<path class="st0" d="M41,0c-9.4,0-18.3,3.1-25.7,9c-0.6,0.5-1,1.3-1,2.1c0,0.8,0.4,1.4,0.7,1.8L37.2,35c1,1,2.4,1.6,3.9,1.6
					c1.5,0,2.8-0.6,3.9-1.6l22-22c0.5-0.5,0.8-1.2,0.8-1.9c0-0.8-0.4-1.6-1-2.1l-0.5-0.4C58.9,3,50.2,0,41,0z"/>
			</g>
		</g>
		<g>
			<g>
				<path class="st0" d="M41,45.4c-1.5,0-2.8,0.6-3.9,1.6L15,69.2c-0.3,0.3-0.6,0.9-0.6,1.7c0,0.8,0.4,1.6,1,2.1
					c7.3,5.9,16.2,9,25.7,9c9.3,0,18-3,25.3-8.8l0.3-0.3c0.6-0.5,1-1.3,1-2.1c0-0.7-0.3-1.4-0.8-1.9l-0.1-0.1L44.9,47
					C43.9,46,42.5,45.4,41,45.4z"/>
			</g>
		</g>
		<g>
			<g>
				<path class="st0" d="M8.6,15.9C3,23.1,0,31.8,0,41c0,9.4,3.1,18.3,9,25.7c0.5,0.6,1.3,1,2.1,1c0.8,0,1.4-0.4,1.8-0.7L35,44.9
					c1-1,1.6-2.4,1.6-3.9c0-1.5-0.6-2.8-1.6-3.9l-22-22c-1.1-1.1-3-1-4,0.2L8.6,15.9z"/>
			</g>
		</g>
	</g>
</g>
<g>
	<path class="st0" d="M6.4,108.2c0.5,0,1-0.1,1.4-0.2c0.4-0.1,0.8-0.3,1.2-0.4c0.2-0.1,0.3-0.1,0.3,0c0.1,0,0.1,0.1,0.1,0.2l0.4,1
		c0.1,0.2,0.1,0.3,0.1,0.3c0,0.1-0.1,0.1-0.2,0.2c-0.6,0.3-1.2,0.6-1.9,0.7c-0.7,0.1-1.3,0.2-1.9,0.2c-1.7,0-3-0.5-3.9-1.5
		c-0.9-1-1.3-2.5-1.3-4.5c0-0.9,0.1-1.8,0.4-2.6s0.6-1.4,1.1-2c0.5-0.5,1-1,1.7-1.3c0.7-0.3,1.4-0.5,2.2-0.5c0.5,0,1,0,1.6,0.1
		s1.1,0.3,1.6,0.6c0.1,0,0.2,0.1,0.2,0.2s0,0.2-0.1,0.3l-0.5,1c0,0.1-0.1,0.2-0.1,0.2s-0.1,0-0.3,0c-0.4-0.1-0.8-0.3-1.1-0.3
		s-0.8-0.1-1.2-0.1c-0.6,0-1.1,0.1-1.5,0.4c-0.4,0.2-0.8,0.6-1,1c-0.3,0.4-0.5,0.9-0.6,1.4C3.1,103,3,103.5,3,104.1
		c0,0.6,0.1,1.1,0.2,1.6c0.1,0.5,0.3,0.9,0.5,1.3s0.6,0.7,1,0.9C5.2,108.1,5.7,108.2,6.4,108.2z"/>
	<path class="st0" d="M15.7,100.8c1.3,0,2.3,0.3,2.9,1s0.9,1.6,0.9,2.8c0,0.3,0,0.5-0.1,0.7c-0.1,0.2-0.2,0.3-0.3,0.5
		c-0.1,0.1-0.3,0.2-0.4,0.2c-0.2,0-0.3,0.1-0.5,0.1h-4.5c0,0.4,0.1,0.8,0.2,1.1c0.1,0.3,0.3,0.5,0.5,0.7c0.2,0.2,0.5,0.3,0.7,0.4
		s0.6,0.1,0.9,0.1c0.4,0,0.7,0,1.1-0.1c0.4-0.1,0.7-0.2,0.9-0.3c0.2-0.1,0.3,0,0.4,0.1l0.5,1c0.1,0.2,0,0.3-0.1,0.4
		c-0.4,0.3-0.9,0.4-1.4,0.5c-0.5,0.1-1,0.2-1.5,0.2c-1.4,0-2.4-0.4-3.1-1.1c-0.7-0.7-1.1-1.9-1.1-3.5c0-0.7,0.1-1.4,0.3-2
		c0.2-0.6,0.5-1.1,0.8-1.5c0.4-0.4,0.8-0.7,1.3-0.9C14.6,100.9,15.1,100.8,15.7,100.8z M15.8,102.4c-0.3,0-0.6,0.1-0.8,0.2
		s-0.4,0.3-0.6,0.5s-0.3,0.4-0.4,0.7c-0.1,0.3-0.2,0.5-0.2,0.8h3.9c0-0.3,0-0.6-0.1-0.9s-0.2-0.5-0.3-0.7c-0.1-0.2-0.3-0.4-0.6-0.5
		C16.5,102.5,16.1,102.4,15.8,102.4z"/>
	<path class="st0" d="M25.1,102.5c-0.1,0-0.3,0-0.5,0c-0.2,0-0.5,0-0.8,0.1v7c0,0.1,0,0.2-0.1,0.2s-0.1,0.1-0.3,0.1h-1.3
		c-0.1,0-0.2,0-0.2-0.1s-0.1-0.1-0.1-0.2v-7.3c0-0.4,0.1-0.7,0.2-1c0.1-0.2,0.5-0.4,0.9-0.5c0.1,0,0.3,0,0.5-0.1
		c0.2,0,0.4,0,0.6-0.1c0.2,0,0.4,0,0.6,0c0.2,0,0.4,0,0.5,0c0.7,0,1.4,0.1,1.9,0.2c0.5,0.2,1,0.4,1.4,0.8s0.6,0.8,0.8,1.4
		c0.2,0.6,0.3,1.2,0.3,2v4.5c0,0.1,0,0.2-0.1,0.2s-0.1,0.1-0.3,0.1h-1.3c-0.1,0-0.2,0-0.2-0.1c-0.1,0-0.1-0.1-0.1-0.2v-4.5
		c0-0.4,0-0.8-0.1-1.2c-0.1-0.3-0.2-0.6-0.4-0.8c-0.2-0.2-0.4-0.4-0.7-0.5C26,102.5,25.6,102.5,25.1,102.5z"/>
	<path class="st0" d="M37.6,109.7c0,0.1-0.1,0.1-0.2,0.1c-0.4,0.1-0.8,0.2-1.2,0.2c-0.4,0-0.7,0-0.9,0c-0.9,0-1.6-0.2-2-0.6
		c-0.4-0.4-0.6-1-0.6-1.8v-5.2h-1.2c-0.1,0-0.2,0-0.2-0.1c0-0.1,0-0.1,0-0.2v-0.7c0-0.1,0-0.2,0.1-0.2c0,0,0.1-0.1,0.2-0.1l1.3-0.3
		l0.2-1.6c0-0.1,0.1-0.2,0.1-0.3s0.1-0.1,0.3-0.1l1-0.3c0.1,0,0.2,0,0.2,0c0.1,0,0.1,0.1,0.1,0.2v2.2h1.8c0.1,0,0.2,0,0.2,0.1
		c0,0.1,0,0.1,0,0.2v1c0,0.1,0,0.2,0,0.2c0,0-0.1,0.1-0.2,0.1h-1.8v4.9c0,0.4,0.1,0.6,0.3,0.7c0.2,0.1,0.4,0.2,0.8,0.2
		c0.1,0,0.2,0,0.3,0s0.2,0,0.3,0c0.1,0,0.2,0,0.4,0s0.2,0,0.3,0c0.1,0,0.2,0,0.2,0s0.1,0.1,0.1,0.2l0.2,1.1
		C37.6,109.6,37.6,109.6,37.6,109.7z"/>
	<path class="st0" d="M41.3,109.9c-0.1,0-0.1,0.1-0.3,0.1h-1.3c-0.1,0-0.2,0-0.2-0.1c-0.1,0-0.1-0.1-0.1-0.2v-7.3
		c0-0.5,0.1-0.8,0.2-1c0.2-0.2,0.5-0.4,1-0.4c0.2,0,0.4,0,0.6-0.1c0.2,0,0.4,0,0.6,0c0.7,0,1.4,0.1,2,0.3c0.6,0.2,1.2,0.5,1.7,0.9
		c0.1,0.1,0.1,0.1,0.1,0.2s0,0.1-0.1,0.2l-0.8,1.1c-0.1,0.1-0.1,0.1-0.2,0.1c-0.1,0-0.1,0-0.2-0.1c-0.3-0.3-0.7-0.5-1.1-0.7
		c-0.4-0.2-0.8-0.2-1.2-0.2c-0.1,0-0.3,0-0.4,0c-0.1,0-0.3,0-0.4,0.1v7C41.4,109.7,41.4,109.8,41.3,109.9z"/>
	<path class="st0" d="M54.7,105.4c0,1.5-0.3,2.7-1,3.5c-0.7,0.8-1.7,1.2-3.1,1.2c-1.4,0-2.4-0.4-3.1-1.2c-0.7-0.8-1-1.9-1-3.5
		c0-0.7,0.1-1.4,0.3-2s0.5-1.1,0.8-1.5c0.4-0.4,0.8-0.7,1.3-0.9c0.5-0.2,1.1-0.3,1.7-0.3c1.3,0,2.4,0.4,3.1,1.2
		C54.4,102.8,54.7,104,54.7,105.4z M52.7,105.5c0-0.4,0-0.8-0.1-1.2c-0.1-0.4-0.2-0.7-0.3-1c-0.2-0.3-0.4-0.5-0.6-0.7
		c-0.3-0.2-0.6-0.2-1-0.2c-0.4,0-0.7,0.1-1,0.2c-0.3,0.2-0.5,0.4-0.7,0.6c-0.2,0.3-0.3,0.6-0.4,0.9c-0.1,0.4-0.1,0.8-0.1,1.2
		c0,0.9,0.2,1.7,0.5,2.2c0.3,0.5,0.8,0.8,1.6,0.8c0.4,0,0.7-0.1,1-0.2c0.3-0.2,0.5-0.4,0.7-0.7s0.3-0.6,0.4-0.9
		C52.7,106.2,52.7,105.9,52.7,105.5z"/>
	<path class="st0" d="M69.8,109.8c-0.1,0-0.2,0.1-0.3,0.1h-1.3c-0.1,0-0.2,0-0.3-0.1c-0.1,0-0.1-0.1-0.1-0.3V98.4
		c0-0.1,0-0.2,0.1-0.3c0.1,0,0.2-0.1,0.3-0.1h1.3c0.2,0,0.3,0,0.3,0.1c0.1,0,0.1,0.1,0.1,0.3v11.2C69.9,109.7,69.8,109.8,69.8,109.8
		z"/>
	<path class="st0" d="M76.2,102.5c-0.1,0-0.3,0-0.5,0c-0.2,0-0.5,0-0.8,0.1v7c0,0.1,0,0.2-0.1,0.2s-0.1,0.1-0.3,0.1h-1.3
		c-0.1,0-0.2,0-0.2-0.1s-0.1-0.1-0.1-0.2v-7.3c0-0.4,0.1-0.7,0.2-1c0.1-0.2,0.5-0.4,0.9-0.5c0.1,0,0.3,0,0.5-0.1
		c0.2,0,0.4,0,0.6-0.1c0.2,0,0.4,0,0.6,0c0.2,0,0.4,0,0.5,0c0.7,0,1.4,0.1,1.9,0.2c0.5,0.2,1,0.4,1.4,0.8s0.6,0.8,0.8,1.4
		c0.2,0.6,0.3,1.2,0.3,2v4.5c0,0.1,0,0.2-0.1,0.2s-0.1,0.1-0.3,0.1h-1.3c-0.1,0-0.2,0-0.2-0.1c-0.1,0-0.1-0.1-0.1-0.2v-4.5
		c0-0.4,0-0.8-0.1-1.2c-0.1-0.3-0.2-0.6-0.4-0.8c-0.2-0.2-0.4-0.4-0.7-0.5C77,102.5,76.6,102.5,76.2,102.5z"/>
	<path class="st0" d="M88.6,109.7c0,0.1-0.1,0.1-0.2,0.1c-0.4,0.1-0.8,0.2-1.2,0.2c-0.4,0-0.7,0-0.9,0c-0.9,0-1.6-0.2-2-0.6
		c-0.4-0.4-0.6-1-0.6-1.8v-5.2h-1.2c-0.1,0-0.2,0-0.2-0.1c0-0.1,0-0.1,0-0.2v-0.7c0-0.1,0-0.2,0.1-0.2c0,0,0.1-0.1,0.2-0.1l1.3-0.3
		l0.2-1.6c0-0.1,0.1-0.2,0.1-0.3s0.1-0.1,0.3-0.1l1-0.3c0.1,0,0.2,0,0.2,0c0.1,0,0.1,0.1,0.1,0.2v2.2h1.8c0.1,0,0.2,0,0.2,0.1
		c0,0.1,0,0.1,0,0.2v1c0,0.1,0,0.2,0,0.2c0,0-0.1,0.1-0.2,0.1h-1.8v4.9c0,0.4,0.1,0.6,0.3,0.7c0.2,0.1,0.4,0.2,0.8,0.2
		c0.1,0,0.2,0,0.3,0s0.2,0,0.3,0c0.1,0,0.2,0,0.4,0s0.2,0,0.3,0c0.1,0,0.2,0,0.2,0s0.1,0.1,0.1,0.2l0.2,1.1
		C88.6,109.6,88.6,109.6,88.6,109.7z"/>
	<path class="st0" d="M94,100.8c1.3,0,2.3,0.3,2.9,1s0.9,1.6,0.9,2.8c0,0.3,0,0.5-0.1,0.7c-0.1,0.2-0.2,0.3-0.3,0.5
		c-0.1,0.1-0.3,0.2-0.4,0.2c-0.2,0-0.3,0.1-0.5,0.1H92c0,0.4,0.1,0.8,0.2,1.1c0.1,0.3,0.3,0.5,0.5,0.7c0.2,0.2,0.5,0.3,0.7,0.4
		s0.6,0.1,0.9,0.1c0.4,0,0.7,0,1.1-0.1c0.4-0.1,0.7-0.2,0.9-0.3c0.2-0.1,0.3,0,0.4,0.1l0.5,1c0.1,0.2,0,0.3-0.1,0.4
		c-0.4,0.3-0.9,0.4-1.4,0.5c-0.5,0.1-1,0.2-1.5,0.2c-1.4,0-2.4-0.4-3.1-1.1c-0.7-0.7-1.1-1.9-1.1-3.5c0-0.7,0.1-1.4,0.3-2
		c0.2-0.6,0.5-1.1,0.8-1.5c0.4-0.4,0.8-0.7,1.3-0.9C92.9,100.9,93.4,100.8,94,100.8z M94.1,102.4c-0.3,0-0.6,0.1-0.8,0.2
		s-0.4,0.3-0.6,0.5s-0.3,0.4-0.4,0.7c-0.1,0.3-0.2,0.5-0.2,0.8H96c0-0.3,0-0.6-0.1-0.9s-0.2-0.5-0.3-0.7c-0.1-0.2-0.3-0.4-0.6-0.5
		C94.8,102.5,94.5,102.4,94.1,102.4z"/>
	<path class="st0" d="M102.2,109.9c-0.1,0-0.1,0.1-0.3,0.1h-1.3c-0.1,0-0.2,0-0.2-0.1c-0.1,0-0.1-0.1-0.1-0.2v-7.3
		c0-0.5,0.1-0.8,0.2-1c0.2-0.2,0.5-0.4,1-0.4c0.2,0,0.4,0,0.6-0.1c0.2,0,0.4,0,0.6,0c0.7,0,1.4,0.1,2,0.3c0.6,0.2,1.2,0.5,1.7,0.9
		c0.1,0.1,0.1,0.1,0.1,0.2s0,0.1-0.1,0.2l-0.8,1.1c-0.1,0.1-0.1,0.1-0.2,0.1c-0.1,0-0.1,0-0.2-0.1c-0.3-0.3-0.7-0.5-1.1-0.7
		c-0.4-0.2-0.8-0.2-1.2-0.2c-0.1,0-0.3,0-0.4,0c-0.1,0-0.3,0-0.4,0.1v7C102.2,109.7,102.2,109.8,102.2,109.9z"/>
	<path class="st0" d="M112.9,109.2c-0.1,0.3-0.2,0.5-0.4,0.7s-0.4,0.2-0.7,0.2h-1c-0.2,0-0.5,0-0.6-0.1c-0.2-0.1-0.3-0.3-0.4-0.7
		l-2.8-7.9c0-0.2,0-0.2,0.2-0.2h1.5c0.1,0,0.2,0,0.3,0c0,0,0.1,0.1,0.1,0.2l1.3,4l0.8,2.9h0.1l0.8-2.9l1.3-4c0-0.1,0.1-0.2,0.1-0.2
		c0,0,0.1-0.1,0.2-0.1h1.5c0.2,0,0.2,0.1,0.2,0.2L112.9,109.2z"/>
	<path class="st0" d="M121.1,100.8c1.3,0,2.3,0.3,2.9,1s0.9,1.6,0.9,2.8c0,0.3,0,0.5-0.1,0.7c-0.1,0.2-0.2,0.3-0.3,0.5
		c-0.1,0.1-0.3,0.2-0.4,0.2c-0.2,0-0.3,0.1-0.5,0.1h-4.5c0,0.4,0.1,0.8,0.2,1.1c0.1,0.3,0.3,0.5,0.5,0.7c0.2,0.2,0.5,0.3,0.7,0.4
		s0.6,0.1,0.9,0.1c0.4,0,0.7,0,1.1-0.1c0.4-0.1,0.7-0.2,0.9-0.3c0.2-0.1,0.3,0,0.4,0.1l0.5,1c0.1,0.2,0,0.3-0.1,0.4
		c-0.4,0.3-0.9,0.4-1.4,0.5c-0.5,0.1-1,0.2-1.5,0.2c-1.4,0-2.4-0.4-3.1-1.1c-0.7-0.7-1.1-1.9-1.1-3.5c0-0.7,0.1-1.4,0.3-2
		c0.2-0.6,0.5-1.1,0.8-1.5c0.4-0.4,0.8-0.7,1.3-0.9C120,100.9,120.5,100.8,121.1,100.8z M121.1,102.4c-0.3,0-0.6,0.1-0.8,0.2
		s-0.4,0.3-0.6,0.5s-0.3,0.4-0.4,0.7c-0.1,0.3-0.2,0.5-0.2,0.8h3.9c0-0.3,0-0.6-0.1-0.9s-0.2-0.5-0.3-0.7c-0.1-0.2-0.3-0.4-0.6-0.5
		C121.8,102.5,121.5,102.4,121.1,102.4z"/>
	<path class="st0" d="M130.5,102.5c-0.1,0-0.3,0-0.5,0c-0.2,0-0.5,0-0.8,0.1v7c0,0.1,0,0.2-0.1,0.2s-0.1,0.1-0.3,0.1h-1.3
		c-0.1,0-0.2,0-0.2-0.1s-0.1-0.1-0.1-0.2v-7.3c0-0.4,0.1-0.7,0.2-1c0.1-0.2,0.5-0.4,0.9-0.5c0.1,0,0.3,0,0.5-0.1
		c0.2,0,0.4,0,0.6-0.1c0.2,0,0.4,0,0.6,0c0.2,0,0.4,0,0.5,0c0.7,0,1.4,0.1,1.9,0.2c0.5,0.2,1,0.4,1.4,0.8s0.6,0.8,0.8,1.4
		c0.2,0.6,0.3,1.2,0.3,2v4.5c0,0.1,0,0.2-0.1,0.2s-0.1,0.1-0.3,0.1h-1.3c-0.1,0-0.2,0-0.2-0.1c-0.1,0-0.1-0.1-0.1-0.2v-4.5
		c0-0.4,0-0.8-0.1-1.2c-0.1-0.3-0.2-0.6-0.4-0.8c-0.2-0.2-0.4-0.4-0.7-0.5C131.4,102.5,131,102.5,130.5,102.5z"/>
	<path class="st0" d="M141.4,108.4c0.4,0,0.7,0,1.1-0.1s0.7-0.2,0.9-0.3c0.1-0.1,0.2-0.1,0.3-0.1c0.1,0,0.1,0.1,0.1,0.2l0.4,1
		c0.1,0.2,0.1,0.3-0.1,0.4c-0.5,0.3-1,0.4-1.5,0.5s-1,0.1-1.5,0.1c-1.3,0-2.2-0.4-2.9-1.2s-1-1.9-1-3.4c0-0.7,0.1-1.4,0.3-1.9
		c0.2-0.6,0.5-1.1,0.8-1.5c0.4-0.4,0.8-0.7,1.3-1c0.5-0.2,1.1-0.3,1.7-0.3c0.5,0,0.9,0,1.4,0.1s0.8,0.2,1.2,0.5
		c0.1,0.1,0.2,0.1,0.2,0.2c0,0.1,0,0.1-0.1,0.3l-0.4,1c0,0.1-0.1,0.1-0.1,0.2c-0.1,0-0.1,0-0.3-0.1c-0.3-0.1-0.6-0.2-0.8-0.3
		c-0.3-0.1-0.6-0.1-0.9-0.1c-0.4,0-0.7,0.1-1,0.2c-0.3,0.2-0.5,0.4-0.7,0.7c-0.2,0.3-0.3,0.6-0.4,0.9c-0.1,0.4-0.1,0.7-0.1,1.1
		c0,0.4,0,0.8,0.1,1.1c0.1,0.3,0.2,0.6,0.3,0.9s0.4,0.5,0.7,0.6S141,108.4,141.4,108.4z"/>
	<path class="st0" d="M148.9,98.7c0,0.3-0.1,0.6-0.4,0.9c-0.2,0.2-0.5,0.4-0.9,0.4s-0.6-0.1-0.9-0.4c-0.2-0.2-0.4-0.5-0.4-0.9
		s0.1-0.6,0.4-0.9s0.5-0.4,0.9-0.4s0.6,0.1,0.9,0.4C148.8,98,148.9,98.3,148.9,98.7z M148.7,109.6c0,0.1,0,0.2-0.1,0.2
		c-0.1,0-0.1,0.1-0.3,0.1H147c-0.1,0-0.2,0-0.2-0.1s-0.1-0.1-0.1-0.2v-8.3c0-0.1,0-0.2,0.1-0.2s0.1-0.1,0.2-0.1h1.3
		c0.1,0,0.2,0,0.3,0.1c0.1,0,0.1,0.1,0.1,0.2V109.6z"/>
	<path class="st0" d="M159.5,105.4c0,1.5-0.3,2.7-1,3.5c-0.7,0.8-1.7,1.2-3.1,1.2c-1.4,0-2.4-0.4-3.1-1.2c-0.7-0.8-1-1.9-1-3.5
		c0-0.7,0.1-1.4,0.3-2s0.5-1.1,0.8-1.5c0.4-0.4,0.8-0.7,1.3-0.9c0.5-0.2,1.1-0.3,1.7-0.3c1.3,0,2.4,0.4,3.1,1.2
		C159.2,102.8,159.5,104,159.5,105.4z M157.5,105.5c0-0.4,0-0.8-0.1-1.2c-0.1-0.4-0.2-0.7-0.3-1c-0.2-0.3-0.4-0.5-0.6-0.7
		c-0.3-0.2-0.6-0.2-1-0.2c-0.4,0-0.7,0.1-1,0.2c-0.3,0.2-0.5,0.4-0.7,0.6c-0.2,0.3-0.3,0.6-0.4,0.9c-0.1,0.4-0.1,0.8-0.1,1.2
		c0,0.9,0.2,1.7,0.5,2.2c0.3,0.5,0.8,0.8,1.6,0.8c0.4,0,0.7-0.1,1-0.2c0.3-0.2,0.5-0.4,0.7-0.7s0.3-0.6,0.4-0.9
		C157.5,106.2,157.5,105.9,157.5,105.5z M154.7,99.9c-0.1,0-0.1-0.1-0.2-0.1c0-0.1,0-0.1,0-0.2l1.2-2.8c0.1-0.2,0.2-0.2,0.4-0.2
		l1.4,0.4c0.1,0,0.1,0.1,0.2,0.1c0,0.1,0,0.1,0,0.2l-1.9,2.7c-0.1,0.1-0.1,0.2-0.2,0.2c-0.1,0-0.1,0-0.2,0L154.7,99.9z"/>
	<path class="st0" d="M165.1,102.5c-0.1,0-0.3,0-0.5,0c-0.2,0-0.5,0-0.8,0.1v7c0,0.1,0,0.2-0.1,0.2s-0.1,0.1-0.3,0.1h-1.3
		c-0.1,0-0.2,0-0.2-0.1s-0.1-0.1-0.1-0.2v-7.3c0-0.4,0.1-0.7,0.2-1c0.1-0.2,0.5-0.4,0.9-0.5c0.1,0,0.3,0,0.5-0.1
		c0.2,0,0.4,0,0.6-0.1c0.2,0,0.4,0,0.6,0c0.2,0,0.4,0,0.5,0c0.7,0,1.4,0.1,1.9,0.2c0.5,0.2,1,0.4,1.4,0.8s0.6,0.8,0.8,1.4
		c0.2,0.6,0.3,1.2,0.3,2v4.5c0,0.1,0,0.2-0.1,0.2s-0.1,0.1-0.3,0.1h-1.3c-0.1,0-0.2,0-0.2-0.1c-0.1,0-0.1-0.1-0.1-0.2v-4.5
		c0-0.4,0-0.8-0.1-1.2c-0.1-0.3-0.2-0.6-0.4-0.8c-0.2-0.2-0.4-0.4-0.7-0.5C166,102.5,165.6,102.5,165.1,102.5z"/>
	<path class="st0" d="M10.3,122.5L10.3,122.5l-0.8,1.5l-1.3,2.9c-0.1,0.3-0.2,0.5-0.4,0.6c-0.1,0.1-0.3,0.1-0.6,0.1H6.5
		c-0.3,0-0.5,0-0.6-0.1c-0.1-0.1-0.2-0.3-0.3-0.6l-1-2.1l-1-2.2H3.5v5.9c0,0.1,0,0.2-0.1,0.3c-0.1,0-0.1,0-0.3,0H1.5
		c-0.1,0-0.2,0-0.3,0c-0.1,0-0.1-0.1-0.1-0.3v-9.8c0-0.4,0.1-0.7,0.2-0.9c0.2-0.2,0.4-0.3,0.8-0.3h0.9c0.3,0,0.5,0.1,0.7,0.2
		s0.3,0.3,0.4,0.6l1.7,3.9l1,2.3H7l1.1-2.5l1.6-3.6c0.1-0.3,0.3-0.5,0.4-0.6c0.2-0.1,0.4-0.2,0.7-0.2h0.8c0.3,0,0.6,0.1,0.8,0.2
		s0.3,0.4,0.3,0.8v9.9c0,0.1,0,0.2-0.1,0.3s-0.2,0-0.3,0h-1.6c-0.1,0-0.2,0-0.3,0c-0.1,0-0.1-0.1-0.1-0.3V122.5z"/>
	<path class="st0" d="M24.1,127.4c0,0.4-0.1,0.7-0.2,1c-0.2,0.3-0.5,0.5-0.9,0.6c-0.2,0.1-0.4,0.1-0.7,0.1c-0.3,0-0.5,0-0.8,0.1
		s-0.5,0-0.7,0c-0.2,0-0.4,0-0.5,0c-0.9,0-1.7-0.1-2.4-0.2s-1.2-0.4-1.6-0.8c-0.4-0.4-0.7-0.9-0.9-1.5c-0.2-0.6-0.3-1.4-0.3-2.3
		l0-6.2c0-0.1,0-0.2,0.1-0.3c0.1,0,0.2-0.1,0.3-0.1h1.7c0.2,0,0.3,0,0.3,0.1s0.1,0.1,0.1,0.3v6.4c0,0.4,0,0.8,0.1,1.1
		c0.1,0.3,0.2,0.6,0.4,0.8c0.2,0.2,0.5,0.4,0.8,0.5c0.3,0.1,0.7,0.2,1.3,0.2c0.1,0,0.2,0,0.3,0c0.1,0,0.3,0,0.4,0c0.2,0,0.3,0,0.5,0
		c0.2,0,0.3,0,0.5-0.1V118c0-0.1,0-0.2,0.1-0.3c0.1,0,0.2-0.1,0.3-0.1h1.7c0.2,0,0.3,0,0.3,0.1s0.1,0.1,0.1,0.3V127.4z"/>
	<path class="st0" d="M28,128.7c-0.4-0.2-0.7-0.4-0.9-0.7c-0.2-0.3-0.4-0.6-0.5-0.9c-0.1-0.4-0.1-0.7-0.1-1.1V118
		c0-0.1,0-0.2,0.1-0.3c0.1,0,0.2-0.1,0.3-0.1h1.7c0.2,0,0.3,0,0.3,0.1c0,0,0.1,0.1,0.1,0.3v7.8c0,0.4,0.1,0.7,0.3,0.8
		c0.2,0.1,0.5,0.2,0.8,0.2h4.1c0.1,0,0.2,0,0.2,0.1c0,0,0.1,0.1,0.1,0.3v1.4c0,0.2-0.1,0.3-0.3,0.3h-4.6
		C28.9,128.9,28.4,128.8,28,128.7z"/>
	<path class="st0" d="M42.1,119.8h-2.9v8.8c0,0.1,0,0.2-0.1,0.3c0,0-0.2,0.1-0.3,0.1h-1.7c-0.1,0-0.2,0-0.3-0.1s-0.1-0.1-0.1-0.3
		v-8.8h-2.8c-0.2,0-0.3-0.1-0.3-0.3V118c0-0.1,0-0.2,0.1-0.3s0.1-0.1,0.2-0.1h8.2c0.1,0,0.2,0,0.3,0.1c0,0,0.1,0.1,0.1,0.3v1.4
		C42.5,119.7,42.3,119.8,42.1,119.8z"/>
	<path class="st0" d="M46.4,128.8c0,0-0.2,0.1-0.3,0.1h-1.7c-0.1,0-0.2,0-0.3-0.1s-0.1-0.1-0.1-0.3V118c0-0.1,0-0.2,0.1-0.3
		s0.2-0.1,0.3-0.1h1.7c0.2,0,0.3,0,0.3,0.1s0.1,0.1,0.1,0.3v10.5C46.5,128.7,46.5,128.8,46.4,128.8z"/>
	<path class="st0" d="M54,126.9c0.2,0,0.5,0,0.8,0s0.6-0.1,0.9-0.2l0-2.4c-0.4,0-0.7,0-1.1,0.1c-0.4,0.1-0.7,0.2-1.1,0.3
		c-0.1,0.1-0.3,0.1-0.3,0.1s-0.1-0.1-0.2-0.2l-0.4-1.3c0-0.1,0-0.2,0-0.2c0-0.1,0.1-0.1,0.2-0.2c0.4-0.2,0.8-0.3,1.3-0.5
		c0.5-0.1,1-0.2,1.5-0.2c0.3,0,0.5,0,0.8,0c0.2,0,0.4,0,0.6,0.1c0.2,0.1,0.4,0.1,0.6,0.2s0.2,0.2,0.3,0.4c0.1,0.2,0.1,0.3,0.1,0.5
		s0,0.4,0,0.6v3.4c0,0.1,0,0.3-0.1,0.4c0,0.1-0.1,0.2-0.3,0.3c-0.3,0.2-0.7,0.3-1,0.4s-0.7,0.2-1.1,0.2s-0.7,0.1-1,0.1
		c-0.3,0-0.6,0-0.7,0c-0.9,0-1.6-0.1-2.3-0.4c-0.6-0.3-1.2-0.6-1.6-1.1c-0.4-0.5-0.7-1.1-0.9-1.8s-0.3-1.5-0.3-2.4
		c0-0.9,0.1-1.7,0.3-2.4c0.2-0.7,0.6-1.3,1-1.8c0.4-0.5,1-0.9,1.6-1.2c0.6-0.3,1.4-0.4,2.2-0.4c0.6,0,1.1,0,1.6,0.1s1.1,0.3,1.6,0.6
		c0.1,0.1,0.2,0.1,0.2,0.2c0,0.1,0,0.2-0.1,0.4l-0.5,1.1c-0.1,0.1-0.1,0.2-0.2,0.3s-0.2,0-0.3,0c-0.4-0.1-0.8-0.2-1.1-0.3
		c-0.4-0.1-0.7-0.1-1.1-0.1c-0.5,0-0.9,0.1-1.2,0.3c-0.3,0.2-0.6,0.4-0.8,0.8c-0.2,0.3-0.4,0.7-0.5,1.1s-0.2,0.9-0.2,1.4
		c0,0.5,0,1,0.1,1.4c0.1,0.4,0.2,0.8,0.4,1.1c0.2,0.3,0.5,0.5,0.8,0.7C53.1,126.8,53.5,126.9,54,126.9z"/>
	<path class="st0" d="M68.1,128.8c0,0.1-0.1,0.1-0.3,0.1h-4.7c-0.6,0-1.1-0.1-1.5-0.3c-0.4-0.2-0.7-0.4-0.9-0.7
		c-0.2-0.3-0.4-0.6-0.5-0.9c-0.1-0.4-0.1-0.7-0.1-1.1v-5.3c0-0.4,0.1-0.8,0.2-1.1c0.1-0.4,0.3-0.7,0.5-0.9c0.2-0.3,0.5-0.5,0.9-0.7
		c0.4-0.2,0.8-0.2,1.4-0.2h4.6c0.1,0,0.2,0,0.2,0.1c0,0.1,0.1,0.2,0.1,0.3v1.4c0,0.1,0,0.2-0.1,0.3c0,0-0.1,0.1-0.2,0.1h-4.1
		c-0.4,0-0.7,0.1-0.8,0.3s-0.2,0.4-0.2,0.7v1.2h4.6c0.1,0,0.2,0,0.2,0.1c0,0.1,0.1,0.2,0.1,0.3v1.2c0,0.1,0,0.2-0.1,0.3
		c0,0.1-0.1,0.1-0.2,0.1h-4.6v1.8c0,0.4,0.1,0.6,0.3,0.8c0.2,0.1,0.4,0.2,0.8,0.2h4.2c0.1,0,0.2,0,0.3,0.1c0,0,0.1,0.2,0.1,0.3v1.4
		C68.2,128.7,68.2,128.8,68.1,128.8z"/>
	<path class="st0" d="M72.4,121.9v6.6c0,0.1,0,0.2-0.1,0.3c0,0-0.1,0.1-0.3,0.1h-1.7c-0.1,0-0.2,0-0.3-0.1s-0.1-0.1-0.1-0.3v-9.8
		c0-0.4,0.1-0.7,0.2-0.9s0.4-0.2,0.8-0.2h0.7c0.2,0,0.3,0,0.4,0c0.1,0,0.2,0.1,0.3,0.1c0.1,0.1,0.2,0.1,0.2,0.2
		c0.1,0.1,0.2,0.2,0.3,0.4l2.7,4.1l1.4,2.2h0.1V118c0-0.1,0-0.2,0.1-0.3c0,0,0.1-0.1,0.3-0.1h1.7c0.2,0,0.4,0.1,0.4,0.3v9.8
		c0,0.3-0.1,0.6-0.2,0.8s-0.4,0.3-0.8,0.3h-0.7c-0.2,0-0.3,0-0.4,0c-0.1,0-0.2,0-0.3-0.1c-0.1-0.1-0.2-0.1-0.2-0.2s-0.2-0.2-0.3-0.4
		l-2.6-3.9L72.4,121.9L72.4,121.9z"/>
	<path class="st0" d="M89.8,128.8c0,0.1-0.1,0.1-0.3,0.1h-4.7c-0.6,0-1.1-0.1-1.5-0.3c-0.4-0.2-0.7-0.4-0.9-0.7
		c-0.2-0.3-0.4-0.6-0.5-0.9c-0.1-0.4-0.1-0.7-0.1-1.1v-5.3c0-0.4,0.1-0.8,0.2-1.1c0.1-0.4,0.3-0.7,0.5-0.9c0.2-0.3,0.5-0.5,0.9-0.7
		c0.4-0.2,0.8-0.2,1.4-0.2h4.6c0.1,0,0.2,0,0.2,0.1c0,0.1,0.1,0.2,0.1,0.3v1.4c0,0.1,0,0.2-0.1,0.3c0,0-0.1,0.1-0.2,0.1h-4.1
		c-0.4,0-0.7,0.1-0.8,0.3s-0.2,0.4-0.2,0.7v1.2h4.6c0.1,0,0.2,0,0.2,0.1c0,0.1,0.1,0.2,0.1,0.3v1.2c0,0.1,0,0.2-0.1,0.3
		c0,0.1-0.1,0.1-0.2,0.1h-4.6v1.8c0,0.4,0.1,0.6,0.3,0.8c0.2,0.1,0.4,0.2,0.8,0.2h4.2c0.1,0,0.2,0,0.3,0.1c0,0,0.1,0.2,0.1,0.3v1.4
		C89.9,128.7,89.9,128.8,89.8,128.8z"/>
	<path class="st0" d="M98.7,123.7c0.4,0.2,0.6,0.4,0.8,0.7c0.1,0.3,0.3,0.6,0.4,1l0.8,3.2c0,0.1,0,0.1,0,0.2c0,0.1-0.1,0.1-0.2,0.1
		h-1.7c-0.1,0-0.2,0-0.4,0s-0.2-0.1-0.3-0.3l-0.7-2.8c-0.1-0.5-0.3-0.9-0.6-1.1c-0.3-0.2-0.6-0.3-1.1-0.3h-1.6v4.2
		c0,0.1,0,0.2-0.1,0.3s-0.1,0.1-0.3,0.1h-1.7c-0.1,0-0.2,0-0.3-0.1s-0.1-0.1-0.1-0.3v-9.9c0-0.3,0.1-0.6,0.2-0.7s0.4-0.2,0.8-0.2
		h3.9c1.2,0,2.1,0.3,2.7,0.9c0.6,0.6,1,1.4,1,2.4c0,0.5-0.1,1.1-0.4,1.5C99.6,123,99.2,123.3,98.7,123.7L98.7,123.7z M97.7,121.1
		c0-0.1,0-0.3-0.1-0.4s-0.1-0.3-0.2-0.4c-0.1-0.1-0.2-0.2-0.4-0.3c-0.2-0.1-0.4-0.1-0.7-0.1h-2.2v2.6h2.1c0.5,0,0.8-0.1,1.1-0.4
		C97.6,121.8,97.7,121.5,97.7,121.1z"/>
	<path class="st0" d="M108.2,126.6h-3.7l-0.6,2c0,0.1-0.1,0.2-0.1,0.2s-0.2,0.1-0.3,0.1h-1.9c-0.1,0-0.2,0-0.2-0.1
		c0-0.1,0-0.1,0-0.2l3.3-10c0.1-0.2,0.1-0.3,0.2-0.4c0.1-0.1,0.1-0.2,0.2-0.3c0.1-0.1,0.2-0.1,0.3-0.1c0.1,0,0.3,0,0.4,0h1
		c0.2,0,0.3,0,0.5,0c0.1,0,0.2,0.1,0.3,0.1c0.1,0.1,0.2,0.2,0.2,0.3c0.1,0.1,0.1,0.3,0.2,0.5l3.3,10c0,0.1,0,0.1,0,0.2
		c0,0.1-0.1,0.1-0.2,0.1h-1.9c-0.1,0-0.2,0-0.3,0s-0.1-0.1-0.2-0.2L108.2,126.6z M105.2,124.6h2.5l-0.6-2l-0.6-2.3h-0.1l-0.6,2.3
		L105.2,124.6z"/>
	<path class="st0" d="M117.9,126.9c0.5,0,1-0.1,1.4-0.2c0.4-0.1,0.8-0.2,1.1-0.4c0.1-0.1,0.3-0.1,0.3,0c0.1,0,0.1,0.1,0.2,0.2
		l0.5,1.2c0.1,0.1,0.1,0.3,0.1,0.3c0,0.1-0.1,0.1-0.2,0.2c-0.6,0.4-1.2,0.6-1.8,0.7c-0.6,0.1-1.3,0.2-1.9,0.2
		c-0.9,0-1.6-0.1-2.3-0.4c-0.6-0.3-1.2-0.6-1.6-1.1c-0.4-0.5-0.7-1.1-0.9-1.8c-0.2-0.7-0.3-1.5-0.3-2.4c0-0.9,0.1-1.7,0.4-2.4
		s0.6-1.3,1-1.8c0.4-0.5,1-0.9,1.6-1.2c0.6-0.3,1.3-0.4,2.1-0.4c0.5,0,1.1,0,1.6,0.1s1,0.3,1.5,0.6c0.1,0.1,0.2,0.1,0.2,0.2
		c0,0.1,0,0.2-0.1,0.4l-0.5,1.1c-0.1,0.1-0.1,0.2-0.2,0.3c-0.1,0-0.2,0-0.3,0c-0.4-0.1-0.7-0.2-1.1-0.3c-0.3-0.1-0.7-0.1-1.1-0.1
		c-0.4,0-0.8,0.1-1.2,0.3c-0.3,0.2-0.6,0.4-0.8,0.8s-0.4,0.7-0.5,1.2c-0.1,0.4-0.2,0.9-0.2,1.4s0,1,0.1,1.4c0.1,0.4,0.2,0.8,0.5,1.1
		s0.5,0.5,0.9,0.7C116.9,126.8,117.4,126.9,117.9,126.9z"/>
	<path class="st0" d="M125.7,128.8c0,0-0.2,0.1-0.3,0.1h-1.7c-0.1,0-0.2,0-0.3-0.1s-0.1-0.1-0.1-0.3V118c0-0.1,0-0.2,0.1-0.3
		s0.2-0.1,0.3-0.1h1.7c0.2,0,0.3,0,0.3,0.1s0.1,0.1,0.1,0.3v10.5C125.8,128.7,125.8,128.8,125.7,128.8z"/>
	<path class="st0" d="M138,123.3c0,0.9-0.1,1.7-0.3,2.4c-0.2,0.7-0.5,1.3-0.9,1.8c-0.4,0.5-0.9,0.9-1.6,1.1
		c-0.6,0.3-1.4,0.4-2.2,0.4c-1.7,0-2.9-0.5-3.7-1.5c-0.8-1-1.2-2.4-1.2-4.3c0-0.9,0.1-1.7,0.3-2.4s0.6-1.3,1-1.8s0.9-0.9,1.6-1.1
		c0.6-0.3,1.3-0.4,2.1-0.4c0.8,0,1.6,0.1,2.2,0.4s1.1,0.6,1.6,1.1c0.4,0.5,0.7,1.1,0.9,1.8C137.9,121.6,138,122.4,138,123.3z
		 M135.5,123.3c0-0.5,0-0.9-0.1-1.4c-0.1-0.4-0.2-0.8-0.4-1.2c-0.2-0.3-0.4-0.6-0.7-0.8c-0.3-0.2-0.7-0.3-1.2-0.3
		c-0.4,0-0.8,0.1-1.1,0.3c-0.3,0.2-0.6,0.4-0.8,0.8c-0.2,0.3-0.4,0.7-0.4,1.1c-0.1,0.4-0.1,0.9-0.1,1.4c0,0.6,0,1.1,0.1,1.5
		s0.2,0.8,0.4,1.2c0.2,0.3,0.4,0.6,0.7,0.7c0.3,0.2,0.7,0.3,1.2,0.3c0.5,0,0.8-0.1,1.2-0.3s0.6-0.5,0.7-0.8c0.2-0.3,0.3-0.7,0.4-1.1
		C135.4,124.2,135.5,123.8,135.5,123.3z"/>
	<path class="st0" d="M142.5,121.9v6.6c0,0.1,0,0.2-0.1,0.3c0,0-0.1,0.1-0.3,0.1h-1.7c-0.1,0-0.2,0-0.3-0.1s-0.1-0.1-0.1-0.3v-9.8
		c0-0.4,0.1-0.7,0.2-0.9s0.4-0.2,0.8-0.2h0.7c0.2,0,0.3,0,0.4,0c0.1,0,0.2,0.1,0.3,0.1c0.1,0.1,0.2,0.1,0.2,0.2
		c0.1,0.1,0.2,0.2,0.3,0.4l2.7,4.1l1.4,2.2h0.1V118c0-0.1,0-0.2,0.1-0.3c0,0,0.1-0.1,0.3-0.1h1.7c0.2,0,0.4,0.1,0.4,0.3v9.8
		c0,0.3-0.1,0.6-0.2,0.8s-0.4,0.3-0.8,0.3h-0.7c-0.2,0-0.3,0-0.4,0c-0.1,0-0.2,0-0.3-0.1c-0.1-0.1-0.2-0.1-0.2-0.2s-0.2-0.2-0.3-0.4
		l-2.6-3.9L142.5,121.9L142.5,121.9z"/>
	<path class="st0" d="M157.9,126.6h-3.7l-0.6,2c0,0.1-0.1,0.2-0.1,0.2s-0.2,0.1-0.3,0.1h-1.9c-0.1,0-0.2,0-0.2-0.1
		c0-0.1,0-0.1,0-0.2l3.3-10c0.1-0.2,0.1-0.3,0.2-0.4c0.1-0.1,0.1-0.2,0.2-0.3c0.1-0.1,0.2-0.1,0.3-0.1c0.1,0,0.3,0,0.4,0h1
		c0.2,0,0.3,0,0.5,0c0.1,0,0.2,0.1,0.3,0.1c0.1,0.1,0.2,0.2,0.2,0.3c0.1,0.1,0.1,0.3,0.2,0.5l3.3,10c0,0.1,0,0.1,0,0.2
		c0,0.1-0.1,0.1-0.2,0.1h-1.9c-0.1,0-0.2,0-0.3,0s-0.1-0.1-0.2-0.2L157.9,126.6z M154.8,124.6h2.5l-0.6-2l-0.6-2.3H156l-0.6,2.3
		L154.8,124.6z"/>
	<path class="st0" d="M164,128.7c-0.4-0.2-0.7-0.4-0.9-0.7c-0.2-0.3-0.4-0.6-0.5-0.9c-0.1-0.4-0.1-0.7-0.1-1.1V118
		c0-0.1,0-0.2,0.1-0.3c0.1,0,0.2-0.1,0.3-0.1h1.7c0.2,0,0.3,0,0.3,0.1c0,0,0.1,0.1,0.1,0.3v7.8c0,0.4,0.1,0.7,0.3,0.8
		c0.2,0.1,0.5,0.2,0.8,0.2h4.1c0.1,0,0.2,0,0.2,0.1c0,0,0.1,0.1,0.1,0.3v1.4c0,0.2-0.1,0.3-0.3,0.3h-4.6
		C164.8,128.9,164.4,128.8,164,128.7z"/>
</g>
</svg>
