<?xml version="1.0" encoding="utf-8"?>
<!-- Generator: Adobe Illustrator 23.1.1, SVG Export Plug-In . SVG Version: 6.00 Build 0)  -->
<svg version="1.1" id="Capa_1" xmlns="http://www.w3.org/2000/svg" xmlns:xlink="http://www.w3.org/1999/xlink" x="0px" y="0px"
	 viewBox="0 0 422.2 85" style="enable-background:new 0 0 422.2 85;" xml:space="preserve">
<style type="text/css">
	.st0{fill:#021E73;}
	.st1{fill:#C3D9F2;}
	.st2{fill:#131FF2;}
	.st3{fill:#030A8C;}
	.st4{font-family:'Lora-Bold';}
	.st5{font-size:20px;}
</style>
<g>
	<rect x="93.2" y="17" class="st0" width="28.3" height="25.5"/>
	<rect x="93.2" class="st1" width="28.3" height="17"/>
	<rect x="93.2" y="42.5" class="st2" width="28.3" height="42.5"/>
	<path class="st2" d="M206.3,20.5l-6,6c-3.8,3.8-7.5,7.5-10.9,10.9l-5.1,5.1c2.4,2.4,4.6,4.6,6.7,6.7l2.3,2.3c2,2,3.8,3.8,5.6,5.6
		l8,8c1,1,2,2,2.9,2.9l7.4,7.4c0.8,0.8,1.6,1.6,2.4,2.4l2.9,2.9c1.5,1.5,2.8,2.8,4,4l0.4,0.4h0V0h0l-14.7,14.7
		C210.1,16.7,208.2,18.6,206.3,20.5z"/>
	<path class="st1" d="M146.1,80.7l2.9-2.9c0.8-0.8,1.5-1.5,2.4-2.4l7.4-7.4c0.9-0.9,1.9-1.9,2.9-2.9l8-8c1.8-1.8,3.6-3.6,5.6-5.6
		l2.3-2.3c2.1-2.1,4.4-4.4,6.7-6.7l-5.1-5.1c-3.4-3.4-7-7-10.9-10.9l-6-6c-1.9-1.9-3.8-3.8-5.8-5.8L141.7,0v85l0.4-0.4
		C143.3,83.5,144.6,82.2,146.1,80.7z"/>
	<path class="st3" d="M222.4,80.7c-0.9-0.9-1.9-1.9-2.9-2.9l-2.4-2.4c-2.2-2.2-4.7-4.7-7.4-7.4l-2.9-2.9c-2.4-2.4-5.1-5.1-8-8
		l-5.6-5.6c-0.7-0.7-1.5-1.5-2.3-2.3l-6.7-6.7l-6.7,6.7c-0.8,0.8-1.5,1.5-2.3,2.3l-5.6,5.6c-2.9,2.9-5.6,5.6-8,8l-2.9,2.9
		c-2.8,2.8-5.2,5.2-7.4,7.4l-2.4,2.4c-1,1-2,2-2.9,2.9l-4,4c-0.1,0.1-0.3,0.3-0.4,0.4h85c-0.1-0.1-0.3-0.3-0.4-0.4L222.4,80.7z"/>
	<path class="st2" d="M19.9,65.1c2.4-2.4,5.1-5.1,8-8l5.6-5.6c0.7-0.7,1.5-1.5,2.3-2.3l6.7-6.7c-1.7-1.7-3.4-3.4-5.1-5.1L26.5,26.5
		c-1.9-1.9-4-4-6-6l-5.8-5.8c-0.7-0.7-1.5-1.5-2.2-2.2C4.8,20.1,0,30.8,0,42.5s4.8,22.4,12.5,30.1c1.4-1.4,3-3,4.6-4.6L19.9,65.1z"
		/>
	<path class="st0" d="M65.1,65.1l-8-8c-1.8-1.8-3.6-3.6-5.6-5.6l-2.3-2.3c-2.1-2.1-4.4-4.4-6.7-6.7c-2.4,2.4-4.6,4.6-6.7,6.7
		l-2.3,2.3c-2,2-3.8,3.8-5.6,5.6l-8,8c-1,1-2,2-2.9,2.9l-4.6,4.6C20.1,80.3,30.8,85,42.5,85s22.4-4.8,30.1-12.5L68,68
		C67.1,67.1,66.1,66.1,65.1,65.1z"/>
	<path class="st1" d="M20.5,20.5l6,6c3.8,3.8,7.5,7.5,10.9,10.9l5.1,5.1l5.1-5.1c3.4-3.4,7-7,10.9-10.9l6-6c1.9-1.9,3.8-3.8,5.8-5.8
		l2.2-2.2C64.9,4.8,54.3,0,42.5,0S20.1,4.8,12.5,12.5l2.2,2.2C16.7,16.7,18.6,18.6,20.5,20.5z"/>
</g>
<text transform="matrix(1 0 0 1 246.9452 24.1789)"><tspan x="0" y="0" class="st0 st4 st5">Centro</tspan><tspan x="0" y="24" class="st0 st4 st5">Intervención</tspan><tspan x="0" y="48" class="st0 st4 st5">Multigeneracional</tspan></text>
</svg>
